<?xml version="1.0" standalone="no"?><!DOCTYPE svg PUBLIC "-//W3C//DTD SVG 1.1//EN" "http://www.w3.org/Graphics/SVG/1.1/DTD/svg11.dtd"><svg t="1563247791756" class="icon" viewBox="0 0 1024 1024" version="1.1" xmlns="http://www.w3.org/2000/svg" p-id="5207" xmlns:xlink="http://www.w3.org/1999/xlink" width="260" height="260"><defs><style type="text/css"></style></defs><path d="M925.96486 879.623356a56.880302 56.880302 0 0 1-80.431102 0c-9.676307 8.857149-18.687048 18.635851-28.158566 28.158565a475.36778 475.36778 0 0 1-40.957913 36.350148H214.781895a461.44209 461.44209 0 0 1-40.957914-36.401345A455.093613 455.093613 0 0 1 61.548102 449.462873l-44.695323-44.490534A56.982697 56.982697 0 0 1 97.386276 324.28525l28.05617 28.46575a34.14866 34.14866 0 0 0 48.279141-48.27914L121.346655 252.148126a34.14866 34.14866 0 0 1 48.27914-48.27914l72.495507 72.341914A34.097463 34.097463 0 1 0 292.653127 230.440432a26.11067 26.11067 0 0 0-2.35508-2.406278l-30.718435-31.128014a455.093613 455.093613 0 0 1 689.065692 431.849998L1013.819584 694.442391a34.14866 34.14866 0 0 1-48.279141 48.330338l-63.638357-64.252727a34.199858 34.199858 0 0 0-48.330338 48.330338l72.444309 72.393111a56.880302 56.880302 0 0 1 0 80.379905zM47.878398 165.010166a34.14866 34.14866 0 1 0 68.246123 0 34.14866 34.14866 0 0 0-68.246123 0z" fill="#EAF0F7" p-id="5208"></path><path d="M96.874302 938.653948h728.180499a5.68291 5.68291 0 0 1 5.682911 5.682911 5.734108 5.734108 0 0 1-5.682911 5.734108H96.874302a5.734108 5.734108 0 0 1-5.682911-5.734108 5.68291 5.68291 0 0 1 5.682911-5.682911z m785.060801 0h34.097463a5.68291 5.68291 0 0 1 5.68291 5.682911 5.68291 5.68291 0 0 1-5.68291 5.734108h-34.097463a5.68291 5.68291 0 0 1-5.68291-5.734108 5.68291 5.68291 0 0 1 5.68291-5.682911zM512.085147 972.802609h34.14866a5.68291 5.68291 0 0 1 5.682911 5.68291 5.68291 5.68291 0 0 1-5.682911 5.68291H512.085147a5.68291 5.68291 0 0 1-5.682911-5.68291A5.68291 5.68291 0 0 1 512.085147 972.802609z m-437.993684 39.83157h147.960461a5.68291 5.68291 0 0 1 5.682911 5.682911 5.68291 5.68291 0 0 1-5.682911 5.68291H74.14266a5.68291 5.68291 0 0 1-5.68291-5.68291 5.68291 5.68291 0 0 1 5.68291-5.682911z m273.035689 0h557.539593a5.68291 5.68291 0 0 1 5.68291 5.682911 5.68291 5.68291 0 0 1-5.68291 5.68291H347.178349a5.68291 5.68291 0 0 1-5.682911-5.68291 5.68291 5.68291 0 0 1 5.682911-5.682911z m255.986957-39.83157h147.909264a5.68291 5.68291 0 0 1 5.68291 5.68291 5.68291 5.68291 0 0 1-5.68291 5.68291h-147.858067a5.68291 5.68291 0 0 1-5.68291-5.68291 5.68291 5.68291 0 0 1 5.68291-5.68291z m-392.479203 0h255.986957a5.68291 5.68291 0 0 1 5.682911 5.68291 5.68291 5.68291 0 0 1-5.682911 5.68291h-255.986957a5.734108 5.734108 0 0 1-5.734108-5.68291 5.734108 5.734108 0 0 1 5.785305-5.68291zM660.045608 56.932472a22.782839 22.782839 0 1 0-22.731641-22.731642 22.731642 22.731642 0 0 0 22.731641 22.731642z m0 11.365821a34.14866 34.14866 0 1 1 34.14866-34.097463 34.14866 34.14866 0 0 1-34.14866 34.097463z m136.543443 460.776523a22.782839 22.782839 0 1 0-22.731641-22.731641 22.731642 22.731642 0 0 0 22.731641 22.731641z m0 11.417019a34.14866 34.14866 0 1 1 34.148661-34.14866 34.14866 34.14866 0 0 1-34.148661 34.14866z m-244.621136-278.769797a22.782839 22.782839 0 1 0-22.731642-22.731642 22.731642 22.731642 0 0 0 22.731642 22.731642z m0 11.365821a34.14866 34.14866 0 1 1 34.14866-34.097463 34.097463 34.097463 0 0 1-34.14866 34.097463zM239.100655 443.779962a22.782839 22.782839 0 1 0-22.731641-22.782839 22.731642 22.731642 0 0 0 22.731641 22.782839z m0 11.365821a34.14866 34.14866 0 1 1 34.148661-34.14866 34.14866 34.14866 0 0 1-34.148661 34.14866z m574.537128-307.184349h34.14866a5.68291 5.68291 0 0 1 5.68291 5.682911 5.68291 5.68291 0 0 1-5.68291 5.68291h-34.14866a5.68291 5.68291 0 0 1-5.682911-5.68291 5.68291 5.68291 0 0 1 5.682911-5.682911z" fill="#CADAEC" p-id="5209"></path><path d="M836.420622 136.595613v34.097463a5.68291 5.68291 0 0 1-5.68291 5.68291 5.631713 5.631713 0 0 1-5.682911-5.68291v-34.097463a5.631713 5.631713 0 0 1 5.682911-5.68291 5.68291 5.68291 0 0 1 5.68291 5.68291zM375.644099 62.615383H409.690364a5.734108 5.734108 0 0 1 5.734108 5.68291A5.68291 5.68291 0 0 1 409.690364 73.981203h-34.046265a5.631713 5.631713 0 0 1-5.682911-5.68291 5.68291 5.68291 0 0 1 5.682911-5.68291z" fill="#CADAEC" p-id="5210"></path><path d="M398.37574 51.249562v34.14866a5.68291 5.68291 0 0 1-5.68291 5.68291 5.68291 5.68291 0 0 1-5.68291-5.68291V51.249562a5.68291 5.68291 0 0 1 5.68291-5.682911A5.68291 5.68291 0 0 1 398.37574 51.249562zM125.340052 614.420868h34.14866a5.68291 5.68291 0 0 1 5.68291 5.682911 5.68291 5.68291 0 0 1-5.68291 5.68291h-34.14866a5.68291 5.68291 0 0 1-5.682911-5.68291 5.68291 5.68291 0 0 1 5.682911-5.682911z" fill="#CADAEC" p-id="5211"></path><path d="M148.071693 603.055047v34.097463a5.68291 5.68291 0 0 1-5.68291 5.734108 5.734108 5.734108 0 0 1-5.68291-5.734108v-34.097463a5.68291 5.68291 0 0 1 5.68291-5.68291 5.631713 5.631713 0 0 1 5.68291 5.68291zM722.660018 318.60234h34.097463a5.68291 5.68291 0 0 1 5.68291 5.68291 5.631713 5.631713 0 0 1-5.68291 5.682911h-34.097463a5.68291 5.68291 0 0 1-5.785305-5.682911 5.734108 5.734108 0 0 1 5.734108-5.68291z" fill="#CADAEC" p-id="5212"></path><path d="M745.39166 307.236519v34.14866a5.68291 5.68291 0 0 1-5.68291 5.682911 5.68291 5.68291 0 0 1-5.682911-5.682911V307.236519a5.68291 5.68291 0 0 1 5.682911-5.68291 5.68291 5.68291 0 0 1 5.68291 5.68291z" fill="#CCDBEC" p-id="5213"></path><path d="M506.453434 859.042005h73.980231v45.514481H506.453434z" fill="#CADAEC" p-id="5214"></path><path d="M517.870452 893.139467h51.197392V870.407826h-51.197392z m-2.867054-34.097462h56.880302a8.498767 8.498767 0 0 1 8.549965 8.498767V896.006521a8.549964 8.549964 0 0 1-8.549965 8.549965h-56.880302A8.549964 8.549964 0 0 1 506.453434 896.006521v-28.465749a8.498767 8.498767 0 0 1 8.549964-8.498767z" fill="#6C7C9D" p-id="5215"></path><path d="M711.243 859.042005h73.980231v45.514481H711.243z" fill="#CADAEC" p-id="5216"></path><path d="M722.660018 893.139467h51.197392V870.407826h-51.197392z m-2.867054-34.097462h56.880302a8.498767 8.498767 0 0 1 8.549965 8.498767V896.006521a8.549964 8.549964 0 0 1-8.549965 8.549965h-56.880302a8.549964 8.549964 0 0 1-8.549964-8.549965v-28.465749a8.498767 8.498767 0 0 1 8.549964-8.498767z" fill="#6C7C9D" p-id="5217"></path><path d="M647.143866 626.657045L425.049581 336.879809 440.408799 322.595737l273.59886 304.266097z" fill="#FFFFFF" p-id="5218"></path><path d="M745.852436 645.139303l20.478957-26.213064a5.631713 5.631713 0 0 1 7.935596-0.972751l17.6631 14.386467a5.734108 5.734108 0 0 1 0.921553 7.935596l-20.478957 26.366656z" fill="#CADAEC" p-id="5219"></path><path d="M770.683171 658.604217l17.816693-21.19572-17.048732-15.000836-17.816692 21.19572z m-8.24278-43.517783a11.417018 11.417018 0 0 1 16.024784-1.433527l17.048731 15.000836a11.365821 11.365821 0 0 1 1.17754 15.871191l-25.240314 30.155264-34.097463-30.001672z" fill="#6C7C9D" p-id="5220"></path><path d="M369.909991 326.281949l56.675512-47.51118 29.182513 34.865424-56.31713 47.511179z" fill="#CADAEC" p-id="5221"></path><path d="M399.911662 353.314171l47.920759-40.292347L425.86874 286.757563l-47.971956 40.241149z m-29.23371-34.865423l47.971955-40.24115a11.365821 11.365821 0 0 1 16.024784 1.433527l21.963681 26.161867a11.365821 11.365821 0 0 1-1.38233 15.973586l-47.920758 40.24115a11.365821 11.365821 0 0 1-16.024784-1.433527l-21.963681-26.161867a11.417018 11.417018 0 0 1 1.331133-15.973586z" fill="#6C7C9D" p-id="5222"></path><path d="M370.268372 272.115109l1.791909-1.433527a22.782839 22.782839 0 0 1 32.049567 2.713461L415.117287 286.757563a5.68291 5.68291 0 0 1-0.665566 7.986793l-27.953775 23.243615a5.68291 5.68291 0 0 1-8.037991-0.511974l-10.956242-13.106532a22.731642 22.731642 0 0 1 2.764659-32.049567z" fill="#FFFFFF" p-id="5223"></path><path d="M371.855492 300.580858l11.007439 13.106532 27.902578-23.499602-10.956242-13.106532a17.099929 17.099929 0 0 0-24.062774-2.150291L373.85219 276.518084a17.099929 17.099929 0 0 0-1.996698 24.062774zM368.732451 266.278606a28.516947 28.516947 0 0 1 39.83157 3.53262l10.956242 13.106532a11.314624 11.314624 0 0 1-1.433527 16.024784L389.928171 322.595737a11.365821 11.365821 0 0 1-16.075981-1.484725l-10.956242-13.055335a28.46575 28.46575 0 0 1 3.53262-39.83157z" fill="#6C7C9D" p-id="5224"></path><path d="M387.00992 290.187788a5.68291 5.68291 0 0 1 5.68291 5.68291v182.006727a5.68291 5.68291 0 0 1-5.68291 5.68291 5.68291 5.68291 0 0 1-5.682911-5.68291V295.870698a5.68291 5.68291 0 0 1 5.682911-5.68291z" fill="#6C7C9D" p-id="5225"></path><path d="M390.081763 483.560335a5.734108 5.734108 0 0 1-4.044594 6.962846L281.696885 518.528154a5.68291 5.68291 0 0 1-6.911648-4.044594 5.580516 5.580516 0 0 1 4.095792-6.911648l104.391481-27.953776a5.631713 5.631713 0 0 1 6.809253 3.942199z" fill="#6C7C9D" p-id="5226"></path><path d="M371.445912 483.560335a5.68291 5.68291 0 0 0 4.095792 6.962846l104.391481 28.004973a5.68291 5.68291 0 0 0 2.867054-11.007439l-104.442679-27.953776a5.580516 5.580516 0 0 0-6.911648 3.993396z" fill="#6C7C9D" p-id="5227"></path><path d="M568.709462 625.786689h180.419608a5.580516 5.580516 0 0 1 3.635014 1.331132l38.142057 31.895975v148.830817a5.68291 5.68291 0 0 1-5.68291 5.682911H506.453434a5.68291 5.68291 0 0 1-5.682911-5.682911v-124.768043l64.201529-55.856354a5.580516 5.580516 0 0 1 3.73741-1.433527z" fill="#FFFFFF" p-id="5228"></path><path d="M749.12907 631.469599h-180.419608L506.453434 685.63644v122.208173h278.769797v-146.168553z m-180.419608-11.36582h180.419608a11.57061 11.57061 0 0 1 7.321227 2.662264l40.138754 33.636686v151.441884a11.365821 11.365821 0 0 1-11.36582 11.365821H506.453434a11.365821 11.365821 0 0 1-11.365821-11.365821V680.465503l66.095832-57.545868a11.365821 11.365821 0 0 1 7.526017-2.815856z" fill="#6C7C9D" p-id="5229"></path><path d="M591.799485 665.61826h68.246123a5.68291 5.68291 0 0 1 5.682911 5.68291V768.013043a5.68291 5.68291 0 0 1-5.682911 5.68291h-119.443514a5.68291 5.68291 0 0 1-5.68291-5.68291v-50.787813l52.733313-50.019851a5.734108 5.734108 0 0 1 4.146988-1.587119z" fill="#CADAEC" p-id="5230"></path><path d="M540.602094 768.013043h119.443514v-96.711873h-68.246123l-51.197391 48.381535z m51.197391-108.077694h68.246123a11.365821 11.365821 0 0 1 11.417019 11.365821V768.013043a11.365821 11.365821 0 0 1-11.417019 11.36582h-119.443514a11.314624 11.314624 0 0 1-11.365821-11.36582v-53.245288L583.761495 663.05839a11.417018 11.417018 0 0 1 8.03799-3.123041z" fill="#6C7C9D" p-id="5231"></path><path d="M708.427143 659.935349h39.831571a8.549964 8.549964 0 0 1 0 17.048731h-39.831571a8.549964 8.549964 0 1 1 0-17.048731z m0 34.14866h39.831571a8.549964 8.549964 0 0 1 0 17.048732h-39.831571a8.549964 8.549964 0 1 1 0-17.048732z m0 34.097463h39.831571a8.549964 8.549964 0 0 1 0 17.099929h-39.831571a8.549964 8.549964 0 1 1 0-17.099929z m0 34.14866h39.831571a8.549964 8.549964 0 0 1 0 17.048731h-39.831571a8.549964 8.549964 0 1 1 0-17.048731z" fill="#CADAEC" p-id="5232"></path><path d="M699.877179 659.935349h45.514481a5.68291 5.68291 0 0 1 5.68291 5.682911 5.68291 5.68291 0 0 1-5.68291 5.68291h-45.514481a5.68291 5.68291 0 0 1-5.682911-5.68291 5.68291 5.68291 0 0 1 5.682911-5.682911z m0 34.14866h45.514481a5.68291 5.68291 0 0 1 5.68291 5.682911 5.68291 5.68291 0 0 1-5.68291 5.68291h-45.514481a5.68291 5.68291 0 0 1-5.682911-5.68291 5.68291 5.68291 0 0 1 5.682911-5.682911z m0 34.097463h45.514481a5.68291 5.68291 0 0 1 5.68291 5.68291 5.68291 5.68291 0 0 1-5.68291 5.682911h-45.514481a5.68291 5.68291 0 0 1-5.682911-5.682911 5.68291 5.68291 0 0 1 5.682911-5.68291z m0 34.14866h45.514481a5.68291 5.68291 0 0 1 5.68291 5.682911 5.68291 5.68291 0 0 1-5.68291 5.68291h-45.514481a5.68291 5.68291 0 0 1-5.682911-5.68291 5.68291 5.68291 0 0 1 5.682911-5.682911zM404.570625 348.706406l197.109957 279.332968 9.266728-6.553266-196.956365-279.332968z m31.128014-24.625945l275.032387 304.061308 8.396372-7.628411L444.299801 316.45205z" fill="#6C7C9D" p-id="5233"></path><path d="M267.566405 512.026085h216.155387v85.346052H267.566405z" fill="#FFFFFF" p-id="5234"></path><path d="M278.932226 517.708996v73.98023h204.789566v-73.98023z m0-11.365821h204.789566a11.314624 11.314624 0 0 1 11.365821 11.365821v73.98023a11.365821 11.365821 0 0 1-11.365821 11.365821h-204.789566a11.365821 11.365821 0 0 1-11.365821-11.365821v-73.98023a11.314624 11.314624 0 0 1 11.365821-11.365821z m108.077694-17.048732a5.734108 5.734108 0 1 0-5.682911-5.734108 5.734108 5.734108 0 0 0 5.682911 5.734108z m0 11.365821a17.099929 17.099929 0 1 1 17.048731-17.099929 17.048731 17.048731 0 0 1-17.048731 17.099929z" fill="#6C7C9D" p-id="5235"></path><path d="M381.327009 483.560335a5.68291 5.68291 0 1 0 11.365821 0 5.68291 5.68291 0 0 0-11.365821 0z" fill="#CADAEC" p-id="5236"></path><path d="M222.051924 716.815651v73.929033h204.789566V716.815651z m0-11.365821h204.789566a11.365821 11.365821 0 0 1 11.365821 11.365821v73.929033a11.417018 11.417018 0 0 1-11.365821 11.417019h-204.789566a11.365821 11.365821 0 0 1-11.365821-11.417019V716.815651a11.314624 11.314624 0 0 1 11.365821-11.365821z m0 113.760604v73.929033h204.789566V819.210434z m0-11.365821h204.789566a11.365821 11.365821 0 0 1 11.365821 11.365821v73.929033a11.417018 11.417018 0 0 1-11.365821 11.417019h-204.789566a11.365821 11.365821 0 0 1-11.365821-11.417019V819.210434a11.314624 11.314624 0 0 1 11.365821-11.365821z m255.986958 11.365821v45.514481h324.23308V819.210434z m0-11.365821h324.23308a11.314624 11.314624 0 0 1 11.365821 11.365821v45.514481a11.314624 11.314624 0 0 1-11.365821 11.365821H478.038882a11.314624 11.314624 0 0 1-11.365821-11.365821V819.210434a11.314624 11.314624 0 0 1 11.365821-11.365821zM301.663868 540.491835h136.543443a5.68291 5.68291 0 0 1 5.68291 5.68291 5.68291 5.68291 0 0 1-5.68291 5.682911H301.663868a5.68291 5.68291 0 0 1-5.682911-5.682911 5.68291 5.68291 0 0 1 5.682911-5.68291z" fill="#6C7C9D" p-id="5237"></path><path d="M244.783566 739.547293h136.543443a5.734108 5.734108 0 0 1 0 11.417018H244.783566a5.68291 5.68291 0 0 1-5.682911-5.68291 5.734108 5.734108 0 0 1 5.682911-5.734108z m0 102.394783h136.543443a5.734108 5.734108 0 0 1 0 11.417018H244.783566a5.68291 5.68291 0 0 1-5.682911-5.68291 5.734108 5.734108 0 0 1 5.682911-5.734108zM301.663868 563.223477H358.492972a5.734108 5.734108 0 0 1 5.734108 5.68291 5.734108 5.734108 0 0 1-5.734108 5.68291H301.663868a5.68291 5.68291 0 0 1-5.682911-5.68291A5.68291 5.68291 0 0 1 301.663868 563.223477z m-56.880302 199.106655H301.663868A5.68291 5.68291 0 0 1 307.295581 768.013043a5.68291 5.68291 0 0 1-5.68291 5.68291h-56.829105a5.68291 5.68291 0 0 1-5.682911-5.68291 5.68291 5.68291 0 0 1 5.682911-5.682911z m0 102.394783H301.663868A5.68291 5.68291 0 0 1 307.295581 870.407826a5.68291 5.68291 0 0 1-5.68291 5.68291h-56.829105a5.68291 5.68291 0 0 1-5.682911-5.68291 5.68291 5.68291 0 0 1 5.682911-5.682911z" fill="#6C7C9D" p-id="5238"></path><path d="M631.631056 671.30117h28.209763v11.673005L574.750754 768.013043h-34.14866v-6.450872z" fill="#FFFFFF" p-id="5239"></path><path d="M489.404702 830.576255h312.86726v34.14866H489.404702z" fill="#CADAEC" p-id="5240"></path></svg>