<svg xmlns="http://www.w3.org/2000/svg" width="18" height="18" viewBox="0 0 18 18">
  <metadata><?xpacket begin="﻿" id="W5M0MpCehiHzreSzNTczkc9d"?>
<x:xmpmeta xmlns:x="adobe:ns:meta/" x:xmptk="Adobe XMP Core 5.6-c138 79.159824, 2016/09/14-01:09:01        ">
   <rdf:RDF xmlns:rdf="http://www.w3.org/1999/02/22-rdf-syntax-ns#">
      <rdf:Description rdf:about=""/>
   </rdf:RDF>
</x:xmpmeta>
                                                                                                    
                                                                                                    
                                                                                                    
                                                                                                    
                                                                                                    
                                                                                                    
                                                                                                    
                                                                                                    
                                                                                                    
                                                                                                    
                                                                                                    
                                                                                                    
                                                                                                    
                                                                                                    
                                                                                                    
                                                                                                    
                                                                                                    
                                                                                                    
                                                                                                    
                                                                                                    
                           
<?xpacket end="w"?></metadata>
<defs>
    <style>
      .cls-1 {
        fill: #1960cb;
        fill-rule: evenodd;
      }
    </style>
  </defs>
  <path id="附件" class="cls-1" d="M1668.79,336.389a1.144,1.144,0,1,0-1.62-1.616l-3.64,3.635a2.856,2.856,0,1,0,4.04,4.037l6.86-6.86a2.852,2.852,0,0,0-4.03-4.037l-0.21.2a0.857,0.857,0,1,1-1.21-1.214l0.2-.2a4.567,4.567,0,0,1,6.46,6.457l-6.85,6.859a4.567,4.567,0,0,1-6.46-6.457l3.63-3.635A2.856,2.856,0,0,1,1670,337.6l-3.43,3.434a0.861,0.861,0,0,1-1.22,0,0.851,0.851,0,0,1,0-1.215Z" transform="translate(-1659.985 -328.015)"/>
</svg>
