<?xml version="1.0" standalone="no"?><!DOCTYPE svg PUBLIC "-//W3C//DTD SVG 1.1//EN" "http://www.w3.org/Graphics/SVG/1.1/DTD/svg11.dtd"><svg t="1557024490558" class="icon" style="" viewBox="0 0 1024 1024" version="1.1" xmlns="http://www.w3.org/2000/svg" p-id="1936" xmlns:xlink="http://www.w3.org/1999/xlink" width="24" height="24"><defs><style type="text/css"></style></defs><path d="M500.224 494.08c25.088-25.088 25.088-65.536 0-90.624-24.576-24.576-65.024-25.088-90.624 0l-203.776 203.776c-62.464 62.976-62.464 163.84 0 226.304 62.464 62.464 163.328 62.464 226.304 0l384.512-384.512c62.464-62.464 62.464-163.84 0-226.304-62.464-62.464-163.84-62.464-226.304 0l-11.264 11.264c-18.944 18.944-49.152 18.944-68.096 0-18.944-18.944-18.944-49.152 0-68.096l11.264-11.264c100.352-99.84 262.144-99.84 361.984 0s99.84 261.632 0 361.984l-384 384.512c-99.84 99.328-261.632 98.816-361.472-0.512-99.84-99.84-99.84-261.12-0.512-361.472l203.776-203.776c62.976-62.464 163.84-62.464 226.304 0 62.464 62.464 62.464 163.328 0 226.304l-192.512 192.512c-18.944 18.944-49.152 18.944-68.096 0-18.944-18.944-18.944-49.152 0-68.096l192.512-192z" fill="#118EE9" p-id="1937"></path></svg>