<?xml version="1.0" encoding="utf-8"?>
<!-- Generator: Adobe Illustrator 21.0.0, SVG Export Plug-In . SVG Version: 6.00 Build 0)  -->
<svg version="1.1" id="Capa_1" xmlns="http://www.w3.org/2000/svg" xmlns:xlink="http://www.w3.org/1999/xlink" x="0px" y="0px"
	 viewBox="0 0 512 512" style="enable-background:new 0 0 512 512;" xml:space="preserve">
<style type="text/css">
	.st0{fill:#0053AD;}
	.st1{fill:#003773;}
	.st2{fill:#FEF7CB;}
	.st3{fill:#FEEB70;}
	.st4{fill:#BEE8FF;}
	.st5{fill:#54CBFF;}
	.st6{fill:#159CE4;}
	.st7{fill:#FCB629;}
</style>
<path class="st0" d="M119,307.1c-3.2,0-6.3-1-9-2.9L7.8,229.4c-5.3-3.9-7.5-10.7-5.5-17c2-6.2,7.9-10.5,14.4-10.5H119
	c8.4,0,15.2,6.8,15.2,15.2V292c0,5.7-3.2,10.9-8.3,13.5C123.7,306.6,121.3,307.1,119,307.1z"/>
<path class="st1" d="M393,307.1c-2.3,0-4.7-0.5-6.9-1.6c-5.1-2.6-8.3-7.8-8.3-13.5v-74.8c0-8.4,6.8-15.2,15.2-15.2h102.2
	c6.6,0,12.4,4.2,14.4,10.5c2,6.2-0.2,13.1-5.5,17L402,304.2C399.4,306.1,396.2,307.1,393,307.1z"/>
<path class="st2" d="M256,407.5c-3.1,0-6.3-1-9-2.9L110,304.2c-3.9-2.9-6.2-7.4-6.2-12.2V73.8c0-8.4,6.8-15.2,15.2-15.2H393
	c8.4,0,15.2,6.8,15.2,15.2V292c0,4.8-2.3,9.4-6.2,12.2L265,404.6C262.3,406.6,259.1,407.5,256,407.5z"/>
<path class="st3" d="M393,58.6H256v348.9c3.1,0,6.3-1,9-2.9l137-100.4c3.9-2.9,6.2-7.4,6.2-12.2V73.8
	C408.2,65.4,401.4,58.6,393,58.6z"/>
<path class="st4" d="M16.8,512c-2,0-4.1-0.4-6-1.2c-5.6-2.4-9.2-7.9-9.2-13.9V217.1c0-5.7,3.2-10.9,8.3-13.5
	c5.1-2.6,11.2-2.1,15.8,1.3l166.5,122c3.6,2.7,5.9,6.8,6.2,11.3c0.3,4.5-1.4,8.9-4.7,12L27.2,507.8C24.4,510.6,20.6,512,16.8,512z"
	/>
<g>
	<path class="st5" d="M495,512H16.8c-6.2,0-11.8-3.8-14.1-9.6c-2.3-5.8-0.8-12.4,3.7-16.6l166.5-157.7c5.3-5,13.5-5.6,19.4-1.2
		l63.7,46.7l63.6-46.6c5.9-4.3,14.1-3.8,19.4,1.2l166.4,157.7c4.5,4.3,6,10.9,3.7,16.6C506.8,508.2,501.2,512,495,512z"/>
	<path class="st5" d="M495.2,512H495c-3.9,0-7.6-1.5-10.4-4.2L318.2,350.2c-3.3-3.1-5-7.5-4.7-12c0.3-4.5,2.5-8.6,6.2-11.3
		l166.6-122.1c4.6-3.4,10.7-3.9,15.8-1.3c5.1,2.6,8.3,7.8,8.3,13.5v279.7C510.4,505.2,503.6,512,495.2,512z"/>
</g>
<g>
	<path class="st3" d="M323.1,182H188.9c-8.4,0-15.2-6.8-15.2-15.2s6.8-15.2,15.2-15.2h134.2c8.4,0,15.2,6.8,15.2,15.2
		S331.5,182,323.1,182z"/>
	<path class="st3" d="M323.1,238H188.9c-8.4,0-15.2-6.8-15.2-15.2s6.8-15.2,15.2-15.2h134.2c8.4,0,15.2,6.8,15.2,15.2
		S331.5,238,323.1,238z"/>
	<path class="st3" d="M323.1,293.9H188.9c-8.4,0-15.2-6.8-15.2-15.2s6.8-15.2,15.2-15.2h134.2c8.4,0,15.2,6.8,15.2,15.2
		C338.3,287.1,331.5,293.9,323.1,293.9z"/>
</g>
<path class="st6" d="M339,328.2c-5.3-5-13.5-5.6-19.4-1.2L256,373.6l0,0V512h239c6.2,0,11.8-3.8,14.1-9.6c2.3-5.8,0.8-12.4-3.7-16.6
	L339,328.2z"/>
<g>
	<path class="st7" d="M323.1,263.6H256v30.3h67.1c8.4,0,15.2-6.8,15.2-15.2C338.3,270.4,331.5,263.6,323.1,263.6z"/>
	<path class="st7" d="M323.1,207.6H256V238h67.1c8.4,0,15.2-6.8,15.2-15.2S331.5,207.6,323.1,207.6z"/>
	<path class="st7" d="M323.1,151.7H256V182h67.1c8.4,0,15.2-6.8,15.2-15.2S331.5,151.7,323.1,151.7z"/>
</g>
</svg>
