<svg id="图层_1" data-name="图层 1" xmlns="http://www.w3.org/2000/svg" viewBox="0 0 1340 1016.67"><defs><style>.cls-1{fill:#7fcef0;}.cls-2{fill:#e6e6e8;}.cls-3,.cls-7{fill:#fff;}.cls-4{fill:#e5e5e4;}.cls-5{fill:#f3f2f2;}.cls-6{fill:#6796cf;}.cls-7{opacity:0.1;}.cls-8{fill:#dcdddd;}.cls-9{fill:#f6ce5b;}.cls-10{fill:#f3d1b1;}.cls-11{fill:#f1cfa1;}.cls-12{fill:#89c998;}.cls-13{fill:#95d4e5;}.cls-14{fill:#f0d152;}.cls-15{fill:#7bb1ba;}.cls-16{fill:#e2e8eb;}.cls-17{opacity:0.5;}.cls-18{fill:none;stroke:#fff;stroke-miterlimit:10;stroke-dasharray:4;}</style></defs><title>矢量智能对象</title><g id="_编组_" data-name="&lt;编组&gt;"><g id="_编组_2" data-name="&lt;编组&gt;"><g id="_编组_3" data-name="&lt;编组&gt;"><rect id="_路径_" data-name="&lt;路径&gt;" class="cls-1" x="774.64" y="275.17" width="9.53" height="4.77"/></g><g id="_编组_4" data-name="&lt;编组&gt;"><path id="_复合路径_" data-name="&lt;复合路径&gt;" class="cls-1" d="M1193.42,475.52h-17.87v-4.77h17.87Zm-35.73,0h-17.86v-4.77h17.86Zm-35.72,0H1104.1v-4.77H1122Zm-35.73,0h-17.86v-4.77h17.86Zm-35.72,0h-17.87v-4.77h17.87Zm-35.73,0H996.92v-4.77h17.86Z" transform="translate(-194.89 -195.59)"/></g><g id="_编组_5" data-name="&lt;编组&gt;"><polygon id="_路径_2" data-name="&lt;路径&gt;" class="cls-1" points="1028.3 279.93 1016.39 279.93 1016.39 275.17 1023.54 275.17 1023.54 268.02 1028.3 268.02 1028.3 279.93"/></g><g id="_编组_6" data-name="&lt;编组&gt;"><path id="_复合路径_2" data-name="&lt;复合路径&gt;" class="cls-1" d="M1223.19,446.38h-4.77V429.14h4.77Zm0-34.47h-4.77V394.68h4.77Zm0-34.47h-4.77V360.21h4.77Zm0-34.47h-4.77V325.74h4.77Z" transform="translate(-194.89 -195.59)"/></g><g id="_编组_7" data-name="&lt;编组&gt;"><rect id="_路径_3" data-name="&lt;路径&gt;" class="cls-1" x="1023.54" y="103.39" width="4.77" height="9.53"/></g></g><g id="_编组_8" data-name="&lt;编组&gt;"><g id="_编组_9" data-name="&lt;编组&gt;"><rect id="_路径_4" data-name="&lt;路径&gt;" class="cls-1" x="1277.65" y="205.83" width="4.77" height="9.53"/></g><g id="_编组_10" data-name="&lt;编组&gt;"><path id="_复合路径_3" data-name="&lt;复合路径&gt;" class="cls-1" d="M1477.3,496.95h-4.77v-21.5h4.77Zm0-43h-4.77v-21.5h4.77Z" transform="translate(-194.89 -195.59)"/></g><g id="_编组_11" data-name="&lt;编组&gt;"><polygon id="_路径_5" data-name="&lt;路径&gt;" class="cls-1" points="1282.41 334.77 1270.5 334.77 1270.5 330.01 1277.65 330.01 1277.65 322.86 1282.41 322.86 1282.41 334.77"/></g><g id="_编组_12" data-name="&lt;编组&gt;"><path id="_复合路径_4" data-name="&lt;复合路径&gt;" class="cls-1" d="M1446.41,530.36h-19V525.6h19Zm-37.95,0h-19V525.6h19Zm-38,0h-19V525.6h19Zm-37.95,0h-19V525.6h19Zm-38,0h-19V525.6h19Zm-37.95,0h-19V525.6h19Zm-38,0h-19V525.6h19Zm-37.95,0h-19V525.6h19Zm-38,0h-19V525.6h19Zm-37.95,0h-19V525.6h19Zm-38,0h-19V525.6h19Zm-37.95,0h-19V525.6h19Z" transform="translate(-194.89 -195.59)"/></g><g id="_编组_13" data-name="&lt;编组&gt;"><rect id="_路径_6" data-name="&lt;路径&gt;" class="cls-1" x="786.59" y="330.01" width="9.53" height="4.77"/></g></g><g id="_编组_14" data-name="&lt;编组&gt;"><g id="_编组_15" data-name="&lt;编组&gt;"><rect id="_路径_7" data-name="&lt;路径&gt;" class="cls-1" x="1171.73" y="424.76" width="9.53" height="4.77"/></g><g id="_编组_16" data-name="&lt;编组&gt;"><path id="_复合路径_5" data-name="&lt;复合路径&gt;" class="cls-1" d="M1349.88,625.11h-16.74v-4.77h16.74Zm-33.48,0h-16.74v-4.77h16.74Z" transform="translate(-194.89 -195.59)"/></g><g id="_编组_17" data-name="&lt;编组&gt;"><polygon id="_路径_8" data-name="&lt;路径&gt;" class="cls-1" points="1088.02 429.52 1076.11 429.52 1076.11 417.61 1080.87 417.61 1080.87 424.76 1088.02 424.76 1088.02 429.52"/></g><g id="_编组_18" data-name="&lt;编组&gt;"><path id="_复合路径_6" data-name="&lt;复合路径&gt;" class="cls-1" d="M1275.76,595H1271V576.82h4.77Zm0-36.38H1271V540.44h4.77Zm0-36.38H1271V504.07h4.77Zm0-36.38H1271V467.69h4.77Z" transform="translate(-194.89 -195.59)"/></g><g id="_编组_19" data-name="&lt;编组&gt;"><polygon id="_路径_9" data-name="&lt;路径&gt;" class="cls-1" points="1080.87 253.9 1076.11 253.9 1076.11 246.76 1068.96 246.76 1068.96 241.99 1080.87 241.99 1080.87 253.9"/></g><g id="_编组_20" data-name="&lt;编组&gt;"><path id="_复合路径_7" data-name="&lt;复合路径&gt;" class="cls-1" d="M1244.88,442.34h-19v-4.77h19Zm-37.94,0h-19v-4.77h19Zm-37.95,0h-19v-4.77h19Zm-37.94,0h-19v-4.77h19Zm-37.94,0h-19v-4.77h19Zm-37.95,0h-19v-4.77h19Z" transform="translate(-194.89 -195.59)"/></g><g id="_编组_21" data-name="&lt;编组&gt;"><rect id="_路径_10" data-name="&lt;路径&gt;" class="cls-1" x="812.79" y="241.99" width="9.53" height="4.77"/></g></g><g id="_编组_22" data-name="&lt;编组&gt;"><g id="_编组_23" data-name="&lt;编组&gt;"><rect id="_路径_11" data-name="&lt;路径&gt;" class="cls-1" x="698.17" y="62.63" width="9.53" height="4.77"/></g><g id="_编组_24" data-name="&lt;编组&gt;"><path id="_复合路径_8" data-name="&lt;复合路径&gt;" class="cls-1" d="M875.15,263h-17.9v-4.77h17.9Zm-35.8,0h-17.9v-4.77h17.9Z" transform="translate(-194.89 -195.59)"/></g><g id="_编组_25" data-name="&lt;编组&gt;"><polygon id="_路径_12" data-name="&lt;路径&gt;" class="cls-1" points="601.5 74.54 596.74 74.54 596.74 62.63 608.65 62.63 608.65 67.39 601.5 67.39 601.5 74.54"/></g><g id="_编组_26" data-name="&lt;编组&gt;"><path id="_复合路径_9" data-name="&lt;复合路径&gt;" class="cls-1" d="M796.39,356.12h-4.77v-21.5h4.77Zm0-43h-4.77v-21.5h4.77Z" transform="translate(-194.89 -195.59)"/></g><g id="_编组_27" data-name="&lt;编组&gt;"><rect id="_路径_13" data-name="&lt;路径&gt;" class="cls-1" x="596.74" y="182.02" width="4.77" height="9.53"/></g></g><g id="_编组_28" data-name="&lt;编组&gt;"><g id="_编组_29" data-name="&lt;编组&gt;"><rect id="_路径_14" data-name="&lt;路径&gt;" class="cls-1" x="58.98" y="57.99" width="9.53" height="4.77"/></g><g id="_编组_30" data-name="&lt;编组&gt;"><path id="_复合路径_10" data-name="&lt;复合路径&gt;" class="cls-1" d="M654.83,258.34H635.26v-4.77h19.57Zm-39.14,0H596.12v-4.77h19.57Zm-39.14,0H557v-4.77h19.57Zm-39.14,0H517.83v-4.77H537.4Zm-39.14,0H478.69v-4.77h19.57Zm-39.14,0H439.55v-4.77h19.57Zm-39.14,0H400.4v-4.77H420Zm-39.14,0H361.26v-4.77h19.57Zm-39.14,0H322.12v-4.77h19.57Zm-39.14,0H283v-4.77h19.57Z" transform="translate(-194.89 -195.59)"/></g><g id="_编组_31" data-name="&lt;编组&gt;"><polygon id="_路径_15" data-name="&lt;路径&gt;" class="cls-1" points="491.43 69.9 486.66 69.9 486.66 62.75 479.51 62.75 479.51 57.99 491.43 57.99 491.43 69.9"/></g><g id="_编组_32" data-name="&lt;编组&gt;"><path id="_复合路径_11" data-name="&lt;复合路径&gt;" class="cls-1" d="M686.32,383.2h-4.77V363.58h4.77Zm0-39.23h-4.77V324.34h4.77Zm0-39.24h-4.77V285.11h4.77Z" transform="translate(-194.89 -195.59)"/></g><g id="_编组_33" data-name="&lt;编组&gt;"><polygon id="_路径_16" data-name="&lt;路径&gt;" class="cls-1" points="498.58 219.14 486.66 219.14 486.66 207.22 491.43 207.22 491.43 214.37 498.58 214.37 498.58 219.14"/></g><g id="_编组_34" data-name="&lt;编组&gt;"><rect id="_路径_17" data-name="&lt;路径&gt;" class="cls-1" x="523.16" y="214.37" width="9.53" height="4.77"/></g></g><g id="_编组_35" data-name="&lt;编组&gt;"><g id="_编组_36" data-name="&lt;编组&gt;"><rect id="_路径_18" data-name="&lt;路径&gt;" class="cls-1" x="357.02" y="237.78" width="4.77" height="9.53"/></g><g id="_编组_37" data-name="&lt;编组&gt;"><path id="_复合路径_12" data-name="&lt;复合路径&gt;" class="cls-1" d="M556.67,526.32h-4.77V505.46h4.77Zm0-41.71h-4.77V463.76h4.77Z" transform="translate(-194.89 -195.59)"/></g><g id="_编组_38" data-name="&lt;编组&gt;"><polygon id="_路径_19" data-name="&lt;路径&gt;" class="cls-1" points="368.93 363.49 357.02 363.49 357.02 351.58 361.79 351.58 361.79 358.73 368.93 358.73 368.93 363.49"/></g><g id="_编组_39" data-name="&lt;编组&gt;"><path id="_复合路径_13" data-name="&lt;复合路径&gt;" class="cls-1" d="M746.66,559.08H728.38v-4.77h18.29Zm-36.57,0H691.81v-4.77H710.1Zm-36.57,0H655.24v-4.77h18.29Zm-36.57,0H618.68v-4.77H637Zm-36.57,0H582.11v-4.77h18.29Z" transform="translate(-194.89 -195.59)"/></g><g id="_编组_40" data-name="&lt;编组&gt;"><rect id="_路径_20" data-name="&lt;路径&gt;" class="cls-1" x="570.06" y="358.73" width="9.53" height="4.77"/></g></g><g id="_编组_41" data-name="&lt;编组&gt;"><g id="_编组_42" data-name="&lt;编组&gt;"><rect id="_路径_21" data-name="&lt;路径&gt;" class="cls-1" x="177.41" y="634.5" width="9.53" height="4.77"/></g><g id="_编组_43" data-name="&lt;编组&gt;"><path id="_复合路径_14" data-name="&lt;复合路径&gt;" class="cls-1" d="M498.74,834.86H479.26v-4.77h19.49Zm-39,0H440.28v-4.77h19.49Zm-39,0H401.31v-4.77H420.8Z" transform="translate(-194.89 -195.59)"/></g><g id="_编组_44" data-name="&lt;编组&gt;"><polygon id="_路径_22" data-name="&lt;路径&gt;" class="cls-1" points="335.26 639.27 323.34 639.27 323.34 634.5 330.49 634.5 330.49 627.36 335.26 627.36 335.26 639.27"/></g><g id="_编组_45" data-name="&lt;编组&gt;"><path id="_复合路径_15" data-name="&lt;复合路径&gt;" class="cls-1" d="M530.14,805.61h-4.77V788.28h4.77Zm0-34.67h-4.77V753.61h4.77Zm0-34.67h-4.77V718.94h4.77Zm0-34.67h-4.77V684.27h4.77Zm0-34.67h-4.77V649.6h4.77Z" transform="translate(-194.89 -195.59)"/></g><g id="_编组_46" data-name="&lt;编组&gt;"><polygon id="_路径_23" data-name="&lt;路径&gt;" class="cls-1" points="335.26 436.67 330.49 436.67 330.49 424.76 342.4 424.76 342.4 429.52 335.26 429.52 335.26 436.67"/></g><g id="_编组_47" data-name="&lt;编组&gt;"><path id="_复合路径_16" data-name="&lt;复合路径&gt;" class="cls-1" d="M1199.2,625.11h-19.47v-4.77h19.47Zm-38.93,0H1140.8v-4.77h19.47Zm-38.93,0h-19.47v-4.77h19.47Zm-38.93,0h-19.47v-4.77h19.47Zm-38.94,0H1024v-4.77h19.47Zm-38.93,0H985.05v-4.77h19.47Zm-38.93,0H946.12v-4.77h19.47Zm-38.93,0H907.18v-4.77h19.47Zm-38.94,0H868.25v-4.77h19.47Zm-38.93,0H829.31v-4.77h19.47Zm-38.93,0H790.37v-4.77h19.47Zm-38.94,0H751.44v-4.77h19.47Zm-38.93,0H712.5v-4.77H732Zm-38.93,0H673.57v-4.77H693Zm-38.94,0H634.63v-4.77H654.1Zm-38.93,0H595.69v-4.77h19.47Zm-38.94,0H556.76v-4.77h19.47Z" transform="translate(-194.89 -195.59)"/></g><g id="_编组_48" data-name="&lt;编组&gt;"><polygon id="_路径_24" data-name="&lt;路径&gt;" class="cls-1" points="1035.69 436.67 1030.93 436.67 1030.93 429.52 1023.78 429.52 1023.78 424.76 1035.69 424.76 1035.69 436.67"/></g><g id="_编组_49" data-name="&lt;编组&gt;"><path id="_复合路径_17" data-name="&lt;复合路径&gt;" class="cls-1" d="M1230.58,729.46h-4.77v-16.2h4.77Zm0-32.4h-4.77v-16.2h4.77Zm0-32.4h-4.77v-16.2h4.77Z" transform="translate(-194.89 -195.59)"/></g><g id="_编组_50" data-name="&lt;编组&gt;"><polygon id="_路径_25" data-name="&lt;路径&gt;" class="cls-1" points="1042.84 561.99 1030.93 561.99 1030.93 550.07 1035.69 550.07 1035.69 557.22 1042.84 557.22 1042.84 561.99"/></g><g id="_编组_51" data-name="&lt;编组&gt;"><path id="_复合路径_18" data-name="&lt;复合路径&gt;" class="cls-1" d="M1374.58,757.58h-17.11v-4.77h17.11Zm-34.22,0h-17.1v-4.77h17.1Zm-34.21,0H1289v-4.77h17.11Zm-34.22,0h-17.11v-4.77h17.11Z" transform="translate(-194.89 -195.59)"/></g><g id="_编组_52" data-name="&lt;编组&gt;"><polygon id="_路径_26" data-name="&lt;路径&gt;" class="cls-1" points="1208.72 569.14 1203.95 569.14 1203.95 561.99 1196.8 561.99 1196.8 557.22 1208.72 557.22 1208.72 569.14"/></g><g id="_编组_53" data-name="&lt;编组&gt;"><path id="_复合路径_19" data-name="&lt;复合路径&gt;" class="cls-1" d="M1403.61,871.27h-4.77V853.51h4.77Zm0-35.51h-4.77V818h4.77Zm0-35.51h-4.77V782.49h4.77Z" transform="translate(-194.89 -195.59)"/></g><g id="_编组_54" data-name="&lt;编组&gt;"><rect id="_路径_27" data-name="&lt;路径&gt;" class="cls-1" x="1203.95" y="693.43" width="4.77" height="9.53"/></g></g><g id="_编组_55" data-name="&lt;编组&gt;"><g id="_编组_56" data-name="&lt;编组&gt;"><rect id="_路径_28" data-name="&lt;路径&gt;" class="cls-1" x="116.92" y="365.2" width="4.77" height="9.53"/></g><g id="_编组_57" data-name="&lt;编组&gt;"><path id="_复合路径_20" data-name="&lt;复合路径&gt;" class="cls-1" d="M316.58,648h-4.77V628.56h4.77Zm0-38.83h-4.77V589.73h4.77Z" transform="translate(-194.89 -195.59)"/></g><g id="_编组_58" data-name="&lt;编组&gt;"><polygon id="_路径_29" data-name="&lt;路径&gt;" class="cls-1" points="128.84 483.72 116.92 483.72 116.92 471.8 121.69 471.8 121.69 478.95 128.84 478.95 128.84 483.72"/></g><g id="_编组_59" data-name="&lt;编组&gt;"><path id="_复合路径_21" data-name="&lt;复合路径&gt;" class="cls-1" d="M390.69,679.31H373.95v-4.77h16.74Zm-33.48,0H340.47v-4.77h16.74Z" transform="translate(-194.89 -195.59)"/></g><g id="_编组_60" data-name="&lt;编组&gt;"><polygon id="_路径_30" data-name="&lt;路径&gt;" class="cls-1" points="224.46 483.72 212.54 483.72 212.54 478.95 219.69 478.95 219.69 471.8 224.46 471.8 224.46 483.72"/></g><g id="_编组_61" data-name="&lt;编组&gt;"><rect id="_路径_31" data-name="&lt;路径&gt;" class="cls-1" x="219.69" y="424.05" width="4.77" height="23.88"/></g><g id="_编组_62" data-name="&lt;编组&gt;"><polygon id="_路径_32" data-name="&lt;路径&gt;" class="cls-1" points="224.46 400.16 219.69 400.16 219.69 388.24 231.61 388.24 231.61 393.01 224.46 393.01 224.46 400.16"/></g><g id="_编组_63" data-name="&lt;编组&gt;"><path id="_复合路径_22" data-name="&lt;复合路径&gt;" class="cls-1" d="M615.4,588.6H596.51v-4.77H615.4Zm-37.78,0H558.73v-4.77h18.89Zm-37.78,0H520.95v-4.77h18.89Zm-37.78,0H483.17v-4.77h18.89Zm-37.78,0H445.38v-4.77h18.89Z" transform="translate(-194.89 -195.59)"/></g><g id="_编组_64" data-name="&lt;编组&gt;"><polygon id="_路径_33" data-name="&lt;路径&gt;" class="cls-1" points="451.31 393.01 439.4 393.01 439.4 388.24 446.55 388.24 446.55 381.1 451.31 381.1 451.31 393.01"/></g><g id="_编组_65" data-name="&lt;编组&gt;"><rect id="_路径_34" data-name="&lt;路径&gt;" class="cls-1" x="446.55" y="346.73" width="4.77" height="17.18"/></g><g id="_编组_66" data-name="&lt;编组&gt;"><polygon id="_路径_35" data-name="&lt;路径&gt;" class="cls-1" points="451.31 329.55 446.55 329.55 446.55 317.63 458.46 317.63 458.46 322.4 451.31 322.4 451.31 329.55"/></g><g id="_编组_67" data-name="&lt;编组&gt;"><path id="_复合路径_23" data-name="&lt;复合路径&gt;" class="cls-1" d="M773.74,518H753.67v-4.77h20.07Zm-40.13,0H713.54v-4.77h20.07Zm-40.13,0H673.41v-4.77h20.07Z" transform="translate(-194.89 -195.59)"/></g><g id="_编组_68" data-name="&lt;编组&gt;"><rect id="_路径_36" data-name="&lt;路径&gt;" class="cls-1" x="598.91" y="317.63" width="9.53" height="4.77"/></g></g></g><path id="_路径_37" data-name="&lt;路径&gt;" class="cls-2" d="M1065.39,1058.8a13.89,13.89,0,0,1-13.64,14.12H705.65A13.89,13.89,0,0,1,692,1058.8V943.74a13.89,13.89,0,0,1,13.64-14.12h346.1a13.89,13.89,0,0,1,13.64,14.12Z" transform="translate(-194.89 -195.59)"/><path id="_路径_38" data-name="&lt;路径&gt;" class="cls-3" d="M734.51,976.08H710.32a1,1,0,0,1-1-1v-24.2a1,1,0,0,1,1-.95h24.19a1,1,0,0,1,1,.95v24.2A1,1,0,0,1,734.51,976.08Z" transform="translate(-194.89 -195.59)"/><path id="_复合路径_24" data-name="&lt;复合路径&gt;" class="cls-4" d="M734.51,950.92v24.2H710.32v-24.2h24.19m0-1.91H710.32a1.92,1.92,0,0,0-1.92,1.91v24.2a1.92,1.92,0,0,0,1.92,1.91h24.19a1.91,1.91,0,0,0,1.92-1.91v-24.2A1.91,1.91,0,0,0,734.51,949Z" transform="translate(-194.89 -195.59)"/><path id="_路径_39" data-name="&lt;路径&gt;" class="cls-3" d="M773.52,976.08H749.33a1,1,0,0,1-1-1v-24.2a1,1,0,0,1,1-.95h24.19a1,1,0,0,1,1,.95v24.2A1,1,0,0,1,773.52,976.08Z" transform="translate(-194.89 -195.59)"/><path id="_复合路径_25" data-name="&lt;复合路径&gt;" class="cls-4" d="M773.52,950.92v24.2H749.33v-24.2h24.19m0-1.91H749.33a1.92,1.92,0,0,0-1.92,1.91v24.2a1.92,1.92,0,0,0,1.92,1.91h24.19a1.91,1.91,0,0,0,1.92-1.91v-24.2A1.91,1.91,0,0,0,773.52,949Z" transform="translate(-194.89 -195.59)"/><path id="_路径_40" data-name="&lt;路径&gt;" class="cls-3" d="M812.53,976.08H788.34a1,1,0,0,1-1-1v-24.2a1,1,0,0,1,1-.95h24.19a1,1,0,0,1,1,.95v24.2A1,1,0,0,1,812.53,976.08Z" transform="translate(-194.89 -195.59)"/><path id="_复合路径_26" data-name="&lt;复合路径&gt;" class="cls-4" d="M812.53,950.92v24.2H788.34v-24.2h24.19m0-1.91H788.34a1.92,1.92,0,0,0-1.92,1.91v24.2a1.92,1.92,0,0,0,1.92,1.91h24.19a1.91,1.91,0,0,0,1.92-1.91v-24.2A1.91,1.91,0,0,0,812.53,949Z" transform="translate(-194.89 -195.59)"/><path id="_路径_41" data-name="&lt;路径&gt;" class="cls-3" d="M851.55,976.08H827.35a1,1,0,0,1-1-1v-24.2a1,1,0,0,1,1-.95h24.19a1,1,0,0,1,1,.95v24.2A1,1,0,0,1,851.55,976.08Z" transform="translate(-194.89 -195.59)"/><path id="_复合路径_27" data-name="&lt;复合路径&gt;" class="cls-4" d="M851.55,950.92v24.2H827.35v-24.2h24.19m0-1.91H827.35a1.92,1.92,0,0,0-1.92,1.91v24.2a1.92,1.92,0,0,0,1.92,1.91h24.19a1.91,1.91,0,0,0,1.92-1.91v-24.2A1.91,1.91,0,0,0,851.55,949Z" transform="translate(-194.89 -195.59)"/><path id="_路径_42" data-name="&lt;路径&gt;" class="cls-3" d="M890.55,976.08H866.36a1,1,0,0,1-1-1v-24.2a1,1,0,0,1,1-.95h24.19a1,1,0,0,1,1,.95v24.2A1,1,0,0,1,890.55,976.08Z" transform="translate(-194.89 -195.59)"/><path id="_复合路径_28" data-name="&lt;复合路径&gt;" class="cls-4" d="M890.55,950.92v24.2H866.36v-24.2h24.19m0-1.91H866.36a1.92,1.92,0,0,0-1.92,1.91v24.2a1.92,1.92,0,0,0,1.92,1.91h24.19a1.91,1.91,0,0,0,1.92-1.91v-24.2A1.91,1.91,0,0,0,890.55,949Z" transform="translate(-194.89 -195.59)"/><path id="_路径_43" data-name="&lt;路径&gt;" class="cls-5" d="M929.57,976.08H905.38a1,1,0,0,1-1-1v-24.2a1,1,0,0,1,1-.95h24.19a1,1,0,0,1,1,.95v24.2A1,1,0,0,1,929.57,976.08Z" transform="translate(-194.89 -195.59)"/><path id="_复合路径_29" data-name="&lt;复合路径&gt;" class="cls-4" d="M929.57,950.92v24.2H905.38v-24.2h24.19m0-1.91H905.38a1.91,1.91,0,0,0-1.92,1.91v24.2a1.91,1.91,0,0,0,1.92,1.91h24.19a1.91,1.91,0,0,0,1.92-1.91v-24.2A1.91,1.91,0,0,0,929.57,949Z" transform="translate(-194.89 -195.59)"/><path id="_路径_44" data-name="&lt;路径&gt;" class="cls-3" d="M968.58,976.08H944.39a1,1,0,0,1-1-1v-24.2a1,1,0,0,1,1-.95h24.19a1,1,0,0,1,1,.95v24.2A1,1,0,0,1,968.58,976.08Z" transform="translate(-194.89 -195.59)"/><path id="_复合路径_30" data-name="&lt;复合路径&gt;" class="cls-4" d="M968.58,950.92v24.2H944.39v-24.2h24.19m0-1.91H944.39a1.92,1.92,0,0,0-1.92,1.91v24.2a1.92,1.92,0,0,0,1.92,1.91h24.19a1.91,1.91,0,0,0,1.92-1.91v-24.2A1.91,1.91,0,0,0,968.58,949Z" transform="translate(-194.89 -195.59)"/><rect id="_路径_45" data-name="&lt;路径&gt;" class="cls-3" x="787.55" y="754.38" width="26.11" height="26.11" rx="0.96" ry="0.96"/><path id="_复合路径_31" data-name="&lt;复合路径&gt;" class="cls-4" d="M1007.59,950.92v24.2H983.4v-24.2h24.19m0-1.91H983.4a1.92,1.92,0,0,0-1.92,1.91v24.2A1.92,1.92,0,0,0,983.4,977h24.19a1.91,1.91,0,0,0,1.92-1.91v-24.2A1.91,1.91,0,0,0,1007.59,949Z" transform="translate(-194.89 -195.59)"/><path id="_路径_46" data-name="&lt;路径&gt;" class="cls-3" d="M734.51,1014.32H710.32a1,1,0,0,1-1-1v-24.2a1,1,0,0,1,1-.95h24.19a1,1,0,0,1,1,.95v24.2A1,1,0,0,1,734.51,1014.32Z" transform="translate(-194.89 -195.59)"/><path id="_复合路径_32" data-name="&lt;复合路径&gt;" class="cls-4" d="M734.51,989.17v24.2H710.32v-24.2h24.19m0-1.9H710.32a1.91,1.91,0,0,0-1.92,1.9v24.2a1.92,1.92,0,0,0,1.92,1.92h24.19a1.91,1.91,0,0,0,1.92-1.92v-24.2A1.9,1.9,0,0,0,734.51,987.27Z" transform="translate(-194.89 -195.59)"/><path id="_路径_47" data-name="&lt;路径&gt;" class="cls-3" d="M773.52,1014.32H749.33a1,1,0,0,1-1-1v-24.2a1,1,0,0,1,1-.95h24.19a1,1,0,0,1,1,.95v24.2A1,1,0,0,1,773.52,1014.32Z" transform="translate(-194.89 -195.59)"/><path id="_复合路径_33" data-name="&lt;复合路径&gt;" class="cls-4" d="M773.52,989.17v24.2H749.33v-24.2h24.19m0-1.9H749.33a1.91,1.91,0,0,0-1.92,1.9v24.2a1.92,1.92,0,0,0,1.92,1.92h24.19a1.91,1.91,0,0,0,1.92-1.92v-24.2A1.9,1.9,0,0,0,773.52,987.27Z" transform="translate(-194.89 -195.59)"/><path id="_路径_48" data-name="&lt;路径&gt;" class="cls-5" d="M812.53,1014.32H788.34a1,1,0,0,1-1-1v-24.2a1,1,0,0,1,1-.95h24.19a1,1,0,0,1,1,.95v24.2A1,1,0,0,1,812.53,1014.32Z" transform="translate(-194.89 -195.59)"/><path id="_复合路径_34" data-name="&lt;复合路径&gt;" class="cls-4" d="M812.53,989.17v24.2H788.34v-24.2h24.19m0-1.9H788.34a1.91,1.91,0,0,0-1.92,1.9v24.2a1.92,1.92,0,0,0,1.92,1.92h24.19a1.91,1.91,0,0,0,1.92-1.92v-24.2A1.9,1.9,0,0,0,812.53,987.27Z" transform="translate(-194.89 -195.59)"/><path id="_路径_49" data-name="&lt;路径&gt;" class="cls-3" d="M851.55,1014.32H827.35a1,1,0,0,1-1-1v-24.2a1,1,0,0,1,1-.95h24.19a1,1,0,0,1,1,.95v24.2A1,1,0,0,1,851.55,1014.32Z" transform="translate(-194.89 -195.59)"/><path id="_复合路径_35" data-name="&lt;复合路径&gt;" class="cls-4" d="M851.55,989.17v24.2H827.35v-24.2h24.19m0-1.9H827.35a1.91,1.91,0,0,0-1.92,1.9v24.2a1.92,1.92,0,0,0,1.92,1.92h24.19a1.91,1.91,0,0,0,1.92-1.92v-24.2A1.9,1.9,0,0,0,851.55,987.27Z" transform="translate(-194.89 -195.59)"/><path id="_路径_50" data-name="&lt;路径&gt;" class="cls-3" d="M890.55,1014.32H866.36a1,1,0,0,1-1-1v-24.2a1,1,0,0,1,1-.95h24.19a1,1,0,0,1,1,.95v24.2A1,1,0,0,1,890.55,1014.32Z" transform="translate(-194.89 -195.59)"/><path id="_复合路径_36" data-name="&lt;复合路径&gt;" class="cls-4" d="M890.55,989.17v24.2H866.36v-24.2h24.19m0-1.9H866.36a1.91,1.91,0,0,0-1.92,1.9v24.2a1.92,1.92,0,0,0,1.92,1.92h24.19a1.91,1.91,0,0,0,1.92-1.92v-24.2A1.9,1.9,0,0,0,890.55,987.27Z" transform="translate(-194.89 -195.59)"/><path id="_路径_51" data-name="&lt;路径&gt;" class="cls-3" d="M929.57,1014.32H905.38a1,1,0,0,1-1-1v-24.2a1,1,0,0,1,1-.95h24.19a1,1,0,0,1,1,.95v24.2A1,1,0,0,1,929.57,1014.32Z" transform="translate(-194.89 -195.59)"/><path id="_复合路径_37" data-name="&lt;复合路径&gt;" class="cls-4" d="M929.57,989.17v24.2H905.38v-24.2h24.19m0-1.9H905.38a1.9,1.9,0,0,0-1.92,1.9v24.2a1.91,1.91,0,0,0,1.92,1.92h24.19a1.91,1.91,0,0,0,1.92-1.92v-24.2A1.9,1.9,0,0,0,929.57,987.27Z" transform="translate(-194.89 -195.59)"/><path id="_路径_52" data-name="&lt;路径&gt;" class="cls-3" d="M968.58,1014.32H944.39a1,1,0,0,1-1-1v-24.2a1,1,0,0,1,1-.95h24.19a1,1,0,0,1,1,.95v24.2A1,1,0,0,1,968.58,1014.32Z" transform="translate(-194.89 -195.59)"/><path id="_复合路径_38" data-name="&lt;复合路径&gt;" class="cls-4" d="M968.58,989.17v24.2H944.39v-24.2h24.19m0-1.9H944.39a1.91,1.91,0,0,0-1.92,1.9v24.2a1.92,1.92,0,0,0,1.92,1.92h24.19a1.91,1.91,0,0,0,1.92-1.92v-24.2A1.9,1.9,0,0,0,968.58,987.27Z" transform="translate(-194.89 -195.59)"/><path id="_路径_53" data-name="&lt;路径&gt;" class="cls-5" d="M1007.59,1014.32H983.4a1,1,0,0,1-1-1v-24.2a1,1,0,0,1,1-.95h24.19a1,1,0,0,1,1,.95v24.2A1,1,0,0,1,1007.59,1014.32Z" transform="translate(-194.89 -195.59)"/><path id="_复合路径_39" data-name="&lt;复合路径&gt;" class="cls-4" d="M1007.59,989.17v24.2H983.4v-24.2h24.19m0-1.9H983.4a1.91,1.91,0,0,0-1.92,1.9v24.2a1.92,1.92,0,0,0,1.92,1.92h24.19a1.91,1.91,0,0,0,1.92-1.92v-24.2A1.9,1.9,0,0,0,1007.59,987.27Z" transform="translate(-194.89 -195.59)"/><path id="_路径_54" data-name="&lt;路径&gt;" class="cls-5" d="M734.51,1052.57H710.32a1,1,0,0,1-1-.95v-24.2a1,1,0,0,1,1-1h24.19a1,1,0,0,1,1,1v24.2A1,1,0,0,1,734.51,1052.57Z" transform="translate(-194.89 -195.59)"/><path id="_复合路径_40" data-name="&lt;复合路径&gt;" class="cls-4" d="M734.51,1027.42v24.2H710.32v-24.2h24.19m0-1.91H710.32a1.91,1.91,0,0,0-1.92,1.91v24.2a1.92,1.92,0,0,0,1.92,1.91h24.19a1.91,1.91,0,0,0,1.92-1.91v-24.2A1.91,1.91,0,0,0,734.51,1025.51Z" transform="translate(-194.89 -195.59)"/><path id="_路径_55" data-name="&lt;路径&gt;" class="cls-5" d="M812.53,1052.57H788.34a1,1,0,0,1-1-.95v-24.2a1,1,0,0,1,1-1h24.19a1,1,0,0,1,1,1v24.2A1,1,0,0,1,812.53,1052.57Z" transform="translate(-194.89 -195.59)"/><path id="_复合路径_41" data-name="&lt;复合路径&gt;" class="cls-4" d="M812.53,1027.42v24.2H788.34v-24.2h24.19m0-1.91H788.34a1.91,1.91,0,0,0-1.92,1.91v24.2a1.92,1.92,0,0,0,1.92,1.91h24.19a1.91,1.91,0,0,0,1.92-1.91v-24.2A1.91,1.91,0,0,0,812.53,1025.51Z" transform="translate(-194.89 -195.59)"/><path id="_路径_56" data-name="&lt;路径&gt;" class="cls-5" d="M851.55,1052.57H827.35a1,1,0,0,1-1-.95v-24.2a1,1,0,0,1,1-1h24.19a1,1,0,0,1,1,1v24.2A1,1,0,0,1,851.55,1052.57Z" transform="translate(-194.89 -195.59)"/><path id="_复合路径_42" data-name="&lt;复合路径&gt;" class="cls-4" d="M851.55,1027.42v24.2H827.35v-24.2h24.19m0-1.91H827.35a1.91,1.91,0,0,0-1.92,1.91v24.2a1.92,1.92,0,0,0,1.92,1.91h24.19a1.91,1.91,0,0,0,1.92-1.91v-24.2A1.91,1.91,0,0,0,851.55,1025.51Z" transform="translate(-194.89 -195.59)"/><path id="_路径_57" data-name="&lt;路径&gt;" class="cls-5" d="M890.55,1052.57H866.36a1,1,0,0,1-1-.95v-24.2a1,1,0,0,1,1-1h24.19a1,1,0,0,1,1,1v24.2A1,1,0,0,1,890.55,1052.57Z" transform="translate(-194.89 -195.59)"/><path id="_复合路径_43" data-name="&lt;复合路径&gt;" class="cls-4" d="M890.55,1027.42v24.2H866.36v-24.2h24.19m0-1.91H866.36a1.91,1.91,0,0,0-1.92,1.91v24.2a1.92,1.92,0,0,0,1.92,1.91h24.19a1.91,1.91,0,0,0,1.92-1.91v-24.2A1.91,1.91,0,0,0,890.55,1025.51Z" transform="translate(-194.89 -195.59)"/><path id="_路径_58" data-name="&lt;路径&gt;" class="cls-3" d="M929.57,1052.57H905.38a1,1,0,0,1-1-.95v-24.2a1,1,0,0,1,1-1h24.19a1,1,0,0,1,1,1v24.2A1,1,0,0,1,929.57,1052.57Z" transform="translate(-194.89 -195.59)"/><path id="_复合路径_44" data-name="&lt;复合路径&gt;" class="cls-4" d="M929.57,1027.42v24.2H905.38v-24.2h24.19m0-1.91H905.38a1.91,1.91,0,0,0-1.92,1.91v24.2a1.91,1.91,0,0,0,1.92,1.91h24.19a1.91,1.91,0,0,0,1.92-1.91v-24.2A1.91,1.91,0,0,0,929.57,1025.51Z" transform="translate(-194.89 -195.59)"/><path id="_路径_59" data-name="&lt;路径&gt;" class="cls-3" d="M968.58,1052.57H944.39a1,1,0,0,1-1-.95v-24.2a1,1,0,0,1,1-1h24.19a1,1,0,0,1,1,1v24.2A1,1,0,0,1,968.58,1052.57Z" transform="translate(-194.89 -195.59)"/><path id="_复合路径_45" data-name="&lt;复合路径&gt;" class="cls-4" d="M968.58,1027.42v24.2H944.39v-24.2h24.19m0-1.91H944.39a1.91,1.91,0,0,0-1.92,1.91v24.2a1.92,1.92,0,0,0,1.92,1.91h24.19a1.91,1.91,0,0,0,1.92-1.91v-24.2A1.91,1.91,0,0,0,968.58,1025.51Z" transform="translate(-194.89 -195.59)"/><path id="_路径_60" data-name="&lt;路径&gt;" class="cls-3" d="M1007.59,1052.57H983.4a1,1,0,0,1-1-.95v-24.2a1,1,0,0,1,1-1h24.19a1,1,0,0,1,1,1v24.2A1,1,0,0,1,1007.59,1052.57Z" transform="translate(-194.89 -195.59)"/><path id="_复合路径_46" data-name="&lt;复合路径&gt;" class="cls-4" d="M1007.59,1027.42v24.2H983.4v-24.2h24.19m0-1.91H983.4a1.91,1.91,0,0,0-1.92,1.91v24.2a1.92,1.92,0,0,0,1.92,1.91h24.19a1.91,1.91,0,0,0,1.92-1.91v-24.2A1.91,1.91,0,0,0,1007.59,1025.51Z" transform="translate(-194.89 -195.59)"/><path id="_路径_61" data-name="&lt;路径&gt;" class="cls-3" d="M1045.35,976.08h-24.19a1,1,0,0,1-1-1v-24.2a1,1,0,0,1,1-.95h24.19a1,1,0,0,1,1,.95v24.2A1,1,0,0,1,1045.35,976.08Z" transform="translate(-194.89 -195.59)"/><path id="_复合路径_47" data-name="&lt;复合路径&gt;" class="cls-4" d="M1045.35,950.92v24.2h-24.19v-24.2h24.19m0-1.91h-24.19a1.92,1.92,0,0,0-1.92,1.91v24.2a1.92,1.92,0,0,0,1.92,1.91h24.19a1.91,1.91,0,0,0,1.91-1.91v-24.2A1.91,1.91,0,0,0,1045.35,949Z" transform="translate(-194.89 -195.59)"/><path id="_路径_62" data-name="&lt;路径&gt;" class="cls-3" d="M1045.35,1014.32h-62a1,1,0,0,1-1-1v-24.2a1,1,0,0,1,1-.95h62a1,1,0,0,1,1,.95v24.2A1,1,0,0,1,1045.35,1014.32Z" transform="translate(-194.89 -195.59)"/><path id="_复合路径_48" data-name="&lt;复合路径&gt;" class="cls-4" d="M1045.35,989.17v24.2h-62v-24.2h62m0-1.9h-62a1.91,1.91,0,0,0-1.92,1.9v24.2a1.92,1.92,0,0,0,1.92,1.92h62a1.91,1.91,0,0,0,1.91-1.92v-24.2A1.9,1.9,0,0,0,1045.35,987.27Z" transform="translate(-194.89 -195.59)"/><path id="_路径_63" data-name="&lt;路径&gt;" class="cls-3" d="M1045.35,1052.57h-24.19a1,1,0,0,1-1-.95v-24.2a1,1,0,0,1,1-1h24.19a1,1,0,0,1,1,1v24.2A1,1,0,0,1,1045.35,1052.57Z" transform="translate(-194.89 -195.59)"/><path id="_复合路径_49" data-name="&lt;复合路径&gt;" class="cls-4" d="M1045.35,1027.42v24.2h-24.19v-24.2h24.19m0-1.91h-24.19a1.91,1.91,0,0,0-1.92,1.91v24.2a1.92,1.92,0,0,0,1.92,1.91h24.19a1.91,1.91,0,0,0,1.91-1.91v-24.2A1.91,1.91,0,0,0,1045.35,1025.51Z" transform="translate(-194.89 -195.59)"/><path id="_路径_64" data-name="&lt;路径&gt;" class="cls-3" d="M891.51,1052.57H749.33a1,1,0,0,1-1-.95v-24.2a1,1,0,0,1,1-1H891.51a1,1,0,0,1,1,1v24.2A1,1,0,0,1,891.51,1052.57Z" transform="translate(-194.89 -195.59)"/><path id="_复合路径_50" data-name="&lt;复合路径&gt;" class="cls-4" d="M891.51,1027.42v24.2H749.33v-24.2H891.51m0-1.91H749.33a1.91,1.91,0,0,0-1.92,1.91v24.2a1.92,1.92,0,0,0,1.92,1.91H891.51a1.91,1.91,0,0,0,1.92-1.91v-24.2A1.91,1.91,0,0,0,891.51,1025.51Z" transform="translate(-194.89 -195.59)"/><path id="_路径_65" data-name="&lt;路径&gt;" class="cls-2" d="M1138.85,854.13c-2.27,5.18-3.18,7.1-7.1,7.1H627.42c-3.92,0-4.49-1.66-7.09-7.1L563,656.24a7.09,7.09,0,0,1,7.09-7.09h617.25a7.09,7.09,0,0,1,7.1,7.09Z" transform="translate(-194.89 -195.59)"/><path id="_路径_66" data-name="&lt;路径&gt;" class="cls-6" d="M1122.05,840.36c-1.64,3.89-2.3,5.33-5.13,5.33H645.61c-2.83,0-3.25-1.25-5.13-5.33L599,674a5.23,5.23,0,0,1,5.13-5.32h553a5.24,5.24,0,0,1,5.14,5.32Z" transform="translate(-194.89 -195.59)"/><path id="_路径_67" data-name="&lt;路径&gt;" class="cls-7" d="M1007.88,682.44H604.33a5.23,5.23,0,0,0-5.13,5.32l41.49,166.35c1.88,4.09,2.3,5.33,5.13,5.33H806.09C870.46,797,938.09,738.41,1007.88,682.44Z" transform="translate(-194.89 -195.59)"/><g id="_编组_69" data-name="&lt;编组&gt;"><g id="_编组_70" data-name="&lt;编组&gt;"><polygon id="_路径_68" data-name="&lt;路径&gt;" class="cls-8" points="409.67 1016.67 448.93 986.06 378.92 896.29 336.61 929.26 404.79 1016.67 409.67 1016.67"/></g></g><g id="_编组_71" data-name="&lt;编组&gt;"><g id="_编组_72" data-name="&lt;编组&gt;"><polygon id="_路径_69" data-name="&lt;路径&gt;" class="cls-9" points="418.04 1016.67 435.67 1001.95 360.27 905.27 217.38 1016.67 418.04 1016.67"/></g></g><g id="_编组_73" data-name="&lt;编组&gt;"><g id="_编组_74" data-name="&lt;编组&gt;"><g id="_编组_75" data-name="&lt;编组&gt;"><path id="_路径_70" data-name="&lt;路径&gt;" class="cls-10" d="M649,1171.37s7.6,8,33.89-2.83,109.21-38,109.21-38l-.74-23.19-60.87,12.06,102.27-77.15-14.29-21.65-83.9,61.09,84.2-75.38L804.3,987.78l-93.14,65.7L789.56,984l-15.34-17.9L691.15,1026l58.54-54-17.78-20.13-139.7,117.27s-6.46,11.29-5.15,22.77l-7.19,7.69,60.25,77.26Z" transform="translate(-194.89 -195.59)"/></g></g><g id="_编组_76" data-name="&lt;编组&gt;"><g id="_编组_77" data-name="&lt;编组&gt;"><path id="_路径_71" data-name="&lt;路径&gt;" class="cls-11" d="M821,989.67a12,12,0,1,0-2.25,16.7A11.91,11.91,0,0,0,821,989.67Z" transform="translate(-194.89 -195.59)"/></g></g><g id="_编组_78" data-name="&lt;编组&gt;"><g id="_编组_79" data-name="&lt;编组&gt;"><path id="_路径_72" data-name="&lt;路径&gt;" class="cls-11" d="M791.56,967.53a12,12,0,1,0-2.25,16.71A11.92,11.92,0,0,0,791.56,967.53Z" transform="translate(-194.89 -195.59)"/></g></g><g id="_编组_80" data-name="&lt;编组&gt;"><g id="_编组_81" data-name="&lt;编组&gt;"><path id="_路径_73" data-name="&lt;路径&gt;" class="cls-11" d="M752,953.26a13.72,13.72,0,1,0-2.57,19A13.59,13.59,0,0,0,752,953.26Z" transform="translate(-194.89 -195.59)"/></g></g><g id="_编组_82" data-name="&lt;编组&gt;"><g id="_编组_83" data-name="&lt;编组&gt;"><path id="_路径_74" data-name="&lt;路径&gt;" class="cls-11" d="M836.29,1023.22a13.14,13.14,0,1,0-2.45,18.23A13,13,0,0,0,836.29,1023.22Z" transform="translate(-194.89 -195.59)"/></g></g><g id="_编组_84" data-name="&lt;编组&gt;"><g id="_编组_85" data-name="&lt;编组&gt;"><path id="_路径_75" data-name="&lt;路径&gt;" class="cls-11" d="M800.19,1111.94a11.73,11.73,0,1,0-2.18,16.27A11.6,11.6,0,0,0,800.19,1111.94Z" transform="translate(-194.89 -195.59)"/></g></g></g><g id="_编组_86" data-name="&lt;编组&gt;"><path id="_路径_76" data-name="&lt;路径&gt;" class="cls-3" d="M610,1196.38a4.82,4.82,0,1,1-4.82-4.82A4.82,4.82,0,0,1,610,1196.38Z" transform="translate(-194.89 -195.59)"/></g><g id="_编组_87" data-name="&lt;编组&gt;"><circle id="_路径_77" data-name="&lt;路径&gt;" class="cls-3" cx="399.54" cy="986.14" r="4.82"/></g><circle id="_路径_78" data-name="&lt;路径&gt;" class="cls-12" cx="360.26" cy="217.08" r="102.45"/><circle id="_路径_79" data-name="&lt;路径&gt;" class="cls-13" cx="1029.64" cy="102.45" r="102.45"/><circle id="_路径_80" data-name="&lt;路径&gt;" class="cls-12" cx="1206.34" cy="696.67" r="102.44"/><circle id="_路径_81" data-name="&lt;路径&gt;" class="cls-13" cx="182.66" cy="650.11" r="102.45"/><circle id="_路径_82" data-name="&lt;路径&gt;" class="cls-14" cx="120.84" cy="361.47" r="59.43"/><circle id="_路径_83" data-name="&lt;路径&gt;" class="cls-14" cx="59.43" cy="60.5" r="59.43"/><circle id="_路径_84" data-name="&lt;路径&gt;" class="cls-14" cx="707.51" cy="63.88" r="59.43"/><circle id="_路径_85" data-name="&lt;路径&gt;" class="cls-12" cx="1280.57" cy="205.61" r="59.43"/><circle id="_路径_86" data-name="&lt;路径&gt;" class="cls-14" cx="1181.26" cy="427.14" r="59.43"/><path id="_路径_87" data-name="&lt;路径&gt;" class="cls-2" d="M1007.67,885.56a10.88,10.88,0,0,1-10.89,10.88H764.46a10.88,10.88,0,0,1-10.89-10.88h0a10.89,10.89,0,0,1,10.89-10.89H996.79a10.89,10.89,0,0,1,10.89,10.89Z" transform="translate(-194.89 -195.59)"/><g id="_编组_88" data-name="&lt;编组&gt;"><g id="_编组_89" data-name="&lt;编组&gt;"><polyline id="_路径_88" data-name="&lt;路径&gt;" class="cls-8" points="917.49 910.1 901.12 859.01 1009.54 824.27 1025.92 875.35"/></g></g><g id="_编组_90" data-name="&lt;编组&gt;"><g id="_编组_91" data-name="&lt;编组&gt;"><polygon id="_路径_89" data-name="&lt;路径&gt;" class="cls-9" points="1075.83 1016.67 1019.89 842.19 903.13 879.61 944.91 1016.67 1075.83 1016.67"/></g></g><g id="_编组_92" data-name="&lt;编组&gt;"><g id="_编组_93" data-name="&lt;编组&gt;"><g id="_编组_94" data-name="&lt;编组&gt;"><path id="_路径_90" data-name="&lt;路径&gt;" class="cls-10" d="M1097.53,1043.19s-10.76,2.31-26.41-21.43-68.86-92.89-68.86-92.89l13.67-18.75,43.5,44.26-41-121.35,24-9.85,34.92,97.73-3-30.79,22.42-7.19,15.84,27.82-4.41-27.27,24.11-7.86,12.29,23.73-2.34-11.48,26-6.62L1202,990.74s-1,13-8.57,21.72l1.61,10.41-93.3,29.91Z" transform="translate(-194.89 -195.59)"/></g></g><g id="_编组_95" data-name="&lt;编组&gt;"><g id="_编组_96" data-name="&lt;编组&gt;"><path id="_路径_91" data-name="&lt;路径&gt;" class="cls-10" d="M1081.82,875.08a12,12,0,1,1-7.54,15.06A11.92,11.92,0,0,1,1081.82,875.08Z" transform="translate(-194.89 -195.59)"/></g></g><g id="_编组_97" data-name="&lt;编组&gt;"><g id="_编组_98" data-name="&lt;编组&gt;"><path id="_路径_92" data-name="&lt;路径&gt;" class="cls-10" d="M1115.79,868.76c6.19-2,14.46.55,16.47,6.88s-2.92,14.07-9.13,16.07a12,12,0,0,1-7.35-22.94Z" transform="translate(-194.89 -195.59)"/></g></g><g id="_编组_99" data-name="&lt;编组&gt;"><g id="_编组_100" data-name="&lt;编组&gt;"><path id="_路径_93" data-name="&lt;路径&gt;" class="cls-10" d="M1150.88,871.07a13.58,13.58,0,0,1,17,9c2.31,7.22-2.05,12-9.12,14.24s-14.14,1.17-16.46-6A13.57,13.57,0,0,1,1150.88,871.07Z" transform="translate(-194.89 -195.59)"/></g></g><g id="_编组_101" data-name="&lt;编组&gt;"><g id="_编组_102" data-name="&lt;编组&gt;"><path id="_路径_94" data-name="&lt;路径&gt;" class="cls-10" d="M1026.21,815.29a13.14,13.14,0,1,1-8.24,16.45A13,13,0,0,1,1026.21,815.29Z" transform="translate(-194.89 -195.59)"/></g></g><g id="_编组_103" data-name="&lt;编组&gt;"><g id="_编组_104" data-name="&lt;编组&gt;"><path id="_路径_95" data-name="&lt;路径&gt;" class="cls-10" d="M1006.07,908.92a11.73,11.73,0,1,1-7.35,14.67A11.61,11.61,0,0,1,1006.07,908.92Z" transform="translate(-194.89 -195.59)"/></g></g></g><g id="_编组_105" data-name="&lt;编组&gt;"><path id="_路径_96" data-name="&lt;路径&gt;" class="cls-3" d="M1115.69,1085.84a4.82,4.82,0,1,0,6.7-1.27A4.83,4.83,0,0,0,1115.69,1085.84Z" transform="translate(-194.89 -195.59)"/></g><g id="_编组_106" data-name="&lt;编组&gt;"><path id="_路径_97" data-name="&lt;路径&gt;" class="cls-3" d="M1132.79,1079.77a4.82,4.82,0,1,0,6.71-1.27A4.82,4.82,0,0,0,1132.79,1079.77Z" transform="translate(-194.89 -195.59)"/></g><g id="_编组_107" data-name="&lt;编组&gt;"><rect id="_路径_98" data-name="&lt;路径&gt;" class="cls-2" x="531.52" y="173.16" width="307.96" height="228.56"/></g><g id="_编组_108" data-name="&lt;编组&gt;"><g id="_编组_109" data-name="&lt;编组&gt;"><rect id="_路径_99" data-name="&lt;路径&gt;" class="cls-13" x="531.52" y="361.11" width="307.96" height="40.66"/></g></g><g id="_编组_110" data-name="&lt;编组&gt;"><g id="_编组_111" data-name="&lt;编组&gt;"><rect id="_路径_100" data-name="&lt;路径&gt;" class="cls-15" x="551.91" y="379.49" width="267.58" height="5.76"/></g></g><g id="_编组_112" data-name="&lt;编组&gt;"><g id="_编组_113" data-name="&lt;编组&gt;"><rect id="_路径_101" data-name="&lt;路径&gt;" class="cls-16" x="551.91" y="379.49" width="154.44" height="5.76"/></g></g><g id="_编组_114" data-name="&lt;编组&gt;" class="cls-17"><g id="_编组_115" data-name="&lt;编组&gt;"><g id="_编组_116" data-name="&lt;编组&gt;"><g id="_编组_117" data-name="&lt;编组&gt;"><polyline id="_路径_102" data-name="&lt;路径&gt;" class="cls-3" points="552.89 345.11 641.32 224.6 735.16 345.11"/></g></g></g><g id="_编组_118" data-name="&lt;编组&gt;"><g id="_编组_119" data-name="&lt;编组&gt;"><g id="_编组_120" data-name="&lt;编组&gt;"><polyline id="_路径_103" data-name="&lt;路径&gt;" class="cls-3" points="666.44 345.11 750.57 261.47 822.68 345.11"/></g></g></g><g id="_编组_121" data-name="&lt;编组&gt;"><g id="_编组_122" data-name="&lt;编组&gt;"><g id="_编组_123" data-name="&lt;编组&gt;"><ellipse id="_路径_104" data-name="&lt;路径&gt;" class="cls-3" cx="776.88" cy="216.76" rx="20.17" ry="20.22"/></g></g></g></g><g id="_编组_124" data-name="&lt;编组&gt;"><g id="_编组_125" data-name="&lt;编组&gt;"><path id="_路径_105" data-name="&lt;路径&gt;" class="cls-13" d="M867.72,481c0,3.7,2.58,5.14,5.72,3.21L903.28,466c3.15-1.92,3.15-5.07,0-7l-29.85-18.23c-3.14-1.92-5.72-.47-5.72,3.21Z" transform="translate(-194.89 -195.59)"/></g></g><g id="_编组_126" data-name="&lt;编组&gt;"><g id="_编组_127" data-name="&lt;编组&gt;"><path id="_复合路径_51" data-name="&lt;复合路径&gt;" class="cls-13" d="M880.39,515.61a53.07,53.07,0,1,1,53.07-53.07A53.14,53.14,0,0,1,880.39,515.61Zm0-101.88a48.81,48.81,0,1,0,48.8,48.81A48.86,48.86,0,0,0,880.39,413.72Z" transform="translate(-194.89 -195.59)"/></g></g><g id="_编组_128" data-name="&lt;编组&gt;"><path id="_路径_106" data-name="&lt;路径&gt;" class="cls-16" d="M909.33,578.11a8.1,8.1,0,1,1-8.1-8.11A8.1,8.1,0,0,1,909.33,578.11Z" transform="translate(-194.89 -195.59)"/></g><g id="_编组_129" data-name="&lt;编组&gt;"><g id="_编组_130" data-name="&lt;编组&gt;"><path id="_复合路径_52" data-name="&lt;复合路径&gt;" class="cls-3" d="M1350.52,956.27a5.66,5.66,0,0,1-5.65-5.66V854.77a13.82,13.82,0,0,1,13.72-13.9h88a13.82,13.82,0,0,1,13.72,13.9v60.57a13.82,13.82,0,0,1-13.72,13.89h-68.68a1.44,1.44,0,0,0-1,.44l-22.24,24.8A5.7,5.7,0,0,1,1350.52,956.27Zm10.28-105.64a6.27,6.27,0,0,0-6.18,6.35v87.1l18.55-20.67a8.33,8.33,0,0,1,5.94-2.56h65.23a6.28,6.28,0,0,0,6.18-6.35V857a6.28,6.28,0,0,0-6.18-6.35Z" transform="translate(-194.89 -195.59)"/></g><g id="_编组_131" data-name="&lt;编组&gt;"><path id="_路径_107" data-name="&lt;路径&gt;" class="cls-3" d="M1381.1,885.73a7.83,7.83,0,1,1-7.83-7.84,7.82,7.82,0,0,1,7.83,7.84" transform="translate(-194.89 -195.59)"/></g><g id="_编组_132" data-name="&lt;编组&gt;"><path id="_路径_108" data-name="&lt;路径&gt;" class="cls-3" d="M1410.39,885.73a7.82,7.82,0,1,1-7.83-7.83,7.81,7.81,0,0,1,7.83,7.83" transform="translate(-194.89 -195.59)"/></g><g id="_编组_133" data-name="&lt;编组&gt;"><path id="_路径_109" data-name="&lt;路径&gt;" class="cls-3" d="M1439.69,885.73a7.82,7.82,0,1,1-7.82-7.83,7.81,7.81,0,0,1,7.82,7.83" transform="translate(-194.89 -195.59)"/></g></g><path id="_路径_110" data-name="&lt;路径&gt;" class="cls-18" d="M901.23,255.33" transform="translate(-194.89 -195.59)"/><path class="cls-3" d="M897.31,275.12a7.29,7.29,0,0,0,0,10.22,7.1,7.1,0,0,0,10.1,0,7.29,7.29,0,0,0,0-10.24,7.15,7.15,0,0,0-5.07-2.11A7.07,7.07,0,0,0,897.31,275.12Zm25.52-10.65a1.38,1.38,0,0,0-.11-.18.42.42,0,0,0-.05-.1,23.68,23.68,0,0,0-40.52,0A4.79,4.79,0,0,0,886,271.8a4.7,4.7,0,0,0,3.59-1.69.66.66,0,0,0,.32-.28,14.28,14.28,0,0,1,22.64-3.23,14.09,14.09,0,0,1,2.14,2.77.51.51,0,0,0,.07.06,4.72,4.72,0,0,0,4,2.28,4.77,4.77,0,0,0,4.75-4.8,4.86,4.86,0,0,0-.65-2.39S922.85,264.47,922.83,264.47Zm13.51-14.07s0-.09,0-.11a42.72,42.72,0,0,0-64.25-4.11,40.93,40.93,0,0,0-3.14,3.56,4.82,4.82,0,0,0-1.42,3.42,4.78,4.78,0,0,0,4.76,4.81,4.71,4.71,0,0,0,3.56-1.65.53.53,0,0,0,.19-.13,32.07,32.07,0,0,1,2.79-3.22,33.18,33.18,0,0,1,47.2,0,33.8,33.8,0,0,1,3.16,3.7.44.44,0,0,0,.25.15,4.67,4.67,0,0,0,3.16,1.24,4.78,4.78,0,0,0,3.78-7.67Z" transform="translate(-194.89 -195.59)"/><path class="cls-3" d="M1268.74,346.43a15.71,15.71,0,0,1-1.44,6.71,17.79,17.79,0,0,1-4,5.48,18.78,18.78,0,0,1-5.91,3.75,19.26,19.26,0,0,1-7.28,1.37h-51.21a19.25,19.25,0,0,1-7.28-1.37,18.79,18.79,0,0,1-5.91-3.75,17.78,17.78,0,0,1-4-5.48,15.71,15.71,0,0,1-1.44-6.71V249.78a16.19,16.19,0,0,1,1.44-6.78,17.53,17.53,0,0,1,4-5.55,18.79,18.79,0,0,1,5.91-3.75,19.25,19.25,0,0,1,7.28-1.37h51.21a19.25,19.25,0,0,1,7.28,1.37,18.79,18.79,0,0,1,5.91,3.75,17.53,17.53,0,0,1,4,5.55,16.19,16.19,0,0,1,1.44,6.78v96.65Zm-11.68-89.72h-65.2v82.65h65.2V256.71Zm-32.6,86.69a7.32,7.32,0,0,0-5.27,2.16,7.5,7.5,0,1,0,10.6,10.6,7.47,7.47,0,0,0-5.34-12.77Zm11.54-99a2.34,2.34,0,0,0-2.31-2.45h-18.32a2.44,2.44,0,0,0-1.51.65,2.2,2.2,0,0,0-.79,1.8,2.34,2.34,0,0,0,2.31,2.45h18.32a2.34,2.34,0,0,0,2.31-2.45Z" transform="translate(-194.89 -195.59)"/><path class="cls-3" d="M290.52,240.81h0l-10.27,22.82a3.42,3.42,0,0,1-2.89,2l-29.57,2,1.71,4.88h32.2a6.85,6.85,0,1,1-6.85,6.85H242.91a6.85,6.85,0,1,1-6.85-6.85h6.18l-13.17-37.64h-7.84a3.42,3.42,0,1,1,0-6.85H231.5a3.41,3.41,0,0,1,3.22,2.3h0l2,5.69H287.4a3.42,3.42,0,0,1,3.42,3.42,3.39,3.39,0,0,1-.31,1.4m-51.39,2,6.33,18.08,29.41-2,7.25-16.11h-43Z" transform="translate(-194.89 -195.59)"/><path class="cls-3" d="M555.15,344.17a68.5,68.5,0,1,0,68.5,68.5A68.5,68.5,0,0,0,555.15,344.17Zm49.65,35a59.4,59.4,0,0,1,10.13,29.24H580.65a164.23,164.23,0,0,0-2.15-23.15A150.12,150.12,0,0,0,604.79,379.15Zm-5.9-7.39a141.91,141.91,0,0,1-22.07,5,139.73,139.73,0,0,0-7-22.18A60,60,0,0,1,598.9,371.77Zm-60.67,36.62a149.56,149.56,0,0,1,2.2-22.07c4.82.42,9.72.67,14.72.67s9.9-.25,14.72-.67a149,149,0,0,1,2.2,22.07ZM572.07,417a149,149,0,0,1-2.2,22.07c-4.82-.42-9.72-.67-14.72-.67s-9.9.25-14.72.67a149.62,149.62,0,0,1-2.2-22.07Zm-21.08-64c1.38-.09,2.75-.21,4.16-.21s2.77.12,4.16.21a128,128,0,0,1,8.78,25c-4.26.37-8.57.59-12.94.59s-8.68-.22-12.93-.6A128,128,0,0,1,551,352.95Zm-10.54,1.68a139.59,139.59,0,0,0-7,22.18,142.14,142.14,0,0,1-22.07-5A60,60,0,0,1,540.44,354.62ZM505.5,379.15a150.12,150.12,0,0,0,26.29,6.08,164.87,164.87,0,0,0-2.15,23.15H495.37A59.44,59.44,0,0,1,505.5,379.15Zm0,67A59.44,59.44,0,0,1,495.37,417h34.27a164.87,164.87,0,0,0,2.15,23.15A150.5,150.5,0,0,0,505.5,446.19Zm5.9,7.39a142.52,142.52,0,0,1,22.07-5,139.73,139.73,0,0,0,7,22.18A60,60,0,0,1,511.4,453.58ZM559.3,472.4c-1.38.1-2.75.21-4.16.21s-2.77-.11-4.16-.21a127.86,127.86,0,0,1-8.78-25c4.26-.37,8.57-.6,12.93-.6s8.68.22,12.93.6A127.58,127.58,0,0,1,559.3,472.4Zm10.54-1.68a139.59,139.59,0,0,0,7-22.18,142.52,142.52,0,0,1,22.07,5A60,60,0,0,1,569.85,470.72Zm34.94-24.53a150.5,150.5,0,0,0-26.29-6.08A164.23,164.23,0,0,0,580.65,417h34.27A59.44,59.44,0,0,1,604.79,446.19Z" transform="translate(-194.89 -195.59)"/><path class="cls-3" d="M407.68,817.15a3.81,3.81,0,0,1,3.68-3.68h9.8a3.53,3.53,0,0,1,3.27,3.68V839l-6.44.29-10.22-7.94V817.13h-.1ZM381,796c0-1.89,2-2.69,3.78-2.69h9.83c1.89,0,3.07.8,3.07,2.69V823.5l-10-7.63L381,825.8V796Zm-26.68,42.53c0-2,2.18-2.88,4.16-2.88h9.83c1.89,0,3.87,1,3.87,2.88v2.37L360,858.4l-5.54-2.47V838.55Zm-25.68-12.3c0-1.89,1.48-2.78,3.27-2.78h9.83c1.89,0,3.68.9,3.68,2.78v24.5l-9.32-4.67-7.33,4.67v-24.5Zm102.42,71.8h-108v-7.84h108v7.84ZM328.64,884V869.3l8-5.06,8.71,4.36V884a2.53,2.53,0,0,1-.29.7H328.64C328.54,884.67,328.64,884.18,328.64,884Zm25.68.7V873.75l9.22,4.45,8.52-11.79v18.25Zm26.68,0V851.55l9.42-14,7.24,5.45v41.73H381Zm26.68,0V850.75l6.44,4.77,10.22-.39v29.65H407.68Zm23.38-36.19-15.28.8-25.56-19.44L362.87,871l-26.48-13.48L322,866.34v-4.87l14-8.84,25.37,12.78,27.67-42,28.25,21.84,13.68-.7v3.87Z" transform="translate(-194.89 -195.59)"/><path class="cls-3" d="M1508.81,374.5h-18.34a20.52,20.52,0,0,0-11.1,3.26l-3.85,2.57-3.91-2.57a20.52,20.52,0,0,0-11.16-3.26h-18.34a2.57,2.57,0,0,0-2.57,2.57v50.67a2.57,2.57,0,0,0,2.57,2.57h18.34a20.52,20.52,0,0,1,11.16,3.21l3.57,2.3a.64.64,0,0,0,.33.1.55.55,0,0,0,.35-.1l3.45-2.3a20.52,20.52,0,0,1,11.16-3.21h18.34a2.57,2.57,0,0,0,2.57-2.57V377.07A2.57,2.57,0,0,0,1508.81,374.5Zm-35.92,53.75a26.21,26.21,0,0,0-12.44-3.12h-15.78v-45.5h15.78a14.67,14.67,0,0,1,8,2.35l3.91,2.5.55.37Zm33.35-3.16h-15.78a26.25,26.25,0,0,0-12.44,3.16V384.84l.55-.37,3.85-2.5a14.67,14.67,0,0,1,8-2.33h15.78Z" transform="translate(-194.89 -195.59)"/><path class="cls-3" d="M1453.29,392.44h13.64V397h-13.64Zm0,9.11h13.64v4.55h-13.64Zm31.83-9.11h13.64V397h-13.64Zm0,9.11h13.64v4.55h-13.64Z" transform="translate(-194.89 -195.59)"/><path class="cls-3" d="M1403,627.5a9.75,9.75,0,0,1,5.77-1.73,10.85,10.85,0,0,1,10.73,10.81,10.69,10.69,0,0,1-10.81,10.73,10.86,10.86,0,0,1-7.5-3.29,27.07,27.07,0,0,1-4,7.5,29.08,29.08,0,0,1-23.6,11.69A29.43,29.43,0,0,1,1350,651.36a28.69,28.69,0,0,1-5.7-17.31l0-10a2.74,2.74,0,0,1,2.52-2.75l53.37.2a2.58,2.58,0,0,1,2.5,2.77Zm5.75,3.53a5.51,5.51,0,1,0,5.49,5.53A5.56,5.56,0,0,0,1408.75,631Zm-59.12-4,0,7.27a23.44,23.44,0,0,0,4.46,14,23.87,23.87,0,0,0,19.51,9.84,24.21,24.21,0,0,0,19.58-9.7,23.44,23.44,0,0,0,4.56-14l0-7.27Z" transform="translate(-194.89 -195.59)"/><path class="cls-3" d="M1357.51,593a2.22,2.22,0,0,1-.49-2.76,2,2,0,0,1,2.76-.74c.25.25.75.5,1,.76a5.85,5.85,0,0,1,1.75,1.76,10.61,10.61,0,0,1,3,6v1.5a9,9,0,0,1-3.78,5.25c-1,1-2,2-2,3.25a8.88,8.88,0,0,0,.74,2.76c.5.75,1,1.26,1.5,2l1.25,1.26a2,2,0,0,1,.24,2.76,2.17,2.17,0,0,1-1.51.75,1.91,1.91,0,0,1-1.25-.51,3.46,3.46,0,0,0-1-.76,14.32,14.32,0,0,1-1.75-2c-1.25-1.76-2.49-4-2.48-6.27a7.72,7.72,0,0,1,3.53-6.25c1-.75,2.26-2,2.27-3.5a3.73,3.73,0,0,0-1-2.26,5.1,5.1,0,0,0-1.49-2.26c-.25-.25-.5-.25-.75-.5S1357.76,593,1357.51,593Zm13.53.05a1.78,1.78,0,0,1-.49-2.76,2,2,0,0,1,2.76-.74c.25.25.75.5,1,.76a12.55,12.55,0,0,1,2,1.76,10.61,10.61,0,0,1,3,6v1.5a9.82,9.82,0,0,1-4.28,5.25,4.12,4.12,0,0,0-2,3,8.88,8.88,0,0,0,.74,2.76c.5.75,1,1.26,1.5,2l1.25,1.26a2,2,0,0,1,.24,2.76,2.17,2.17,0,0,1-1.51.75,1.91,1.91,0,0,1-1.25-.51,3.46,3.46,0,0,0-1-.76,14.32,14.32,0,0,1-1.75-2c-1.25-1.76-2.49-4-2.48-6.27a7.72,7.72,0,0,1,3.53-6.25c1-.75,2.26-2,2.27-3.5a3.73,3.73,0,0,0-1-2.26c0-.75-.75-1.51-1.5-2-.25-.25-.5-.5-.75-.5C1371.29,593.07,1371.29,593.07,1371,593.07Zm13.53.05a2,2,0,0,1,2-3.5c.25.25.75.5,1,.76a12.55,12.55,0,0,1,2,1.76,10.61,10.61,0,0,1,3,6v1.5a9.39,9.39,0,0,1-4,5.25,4.12,4.12,0,0,0-2,3,8.88,8.88,0,0,0,.74,2.76c.5.75,1,1.26,1.5,2l1.25,1.26a2,2,0,0,1,.24,2.76,2.17,2.17,0,0,1-1.51.75,1.91,1.91,0,0,1-1.25-.51,3.46,3.46,0,0,0-1-.76,14.32,14.32,0,0,1-1.75-2c-1.25-1.76-2.49-4-2.48-6.27a7.72,7.72,0,0,1,3.53-6.25c1-.75,2.26-2,2.27-3.5a3.73,3.73,0,0,0-1-2.26C1386.82,594.88,1385.57,593.87,1384.57,593.12Z" transform="translate(-194.89 -195.59)"/><path class="cls-3" d="M334.58,578.06H294.78l-.5,0a11,11,0,0,1-1.92-21.58l4.16-1.14.43-4.29a18.83,18.83,0,0,1,36.54-4.29,18.76,18.76,0,0,0-11.39,4.64,3.14,3.14,0,0,0,4.11,4.76l.06-.06A12.4,12.4,0,0,1,339,553.75c.28.11.55.21.82.34a12.22,12.22,0,0,1,1.26.69c.23.14.47.26.69.42a13.19,13.19,0,0,1,1.53,1.27c.19.19.36.4.55.6a12.81,12.81,0,0,1,.95,1.15c.2.28.37.58.54.87s.39.67.55,1,.3.67.43,1,.24.72.34,1.09.2.7.26,1.07a12.89,12.89,0,0,1,.15,1.46c0,.25.06.5.06.75a12.58,12.58,0,0,1-12.58,12.58h0m18.88-12.58a18.67,18.67,0,0,0-.26-3c0-.06,0-.13,0-.19a18.52,18.52,0,0,0-.7-2.83l0-.06a19,19,0,0,0-6.77-9.17l-.2-.15a18.64,18.64,0,0,0-2.32-1.4l-.31-.15a18.46,18.46,0,0,0-2.56-1,25.16,25.16,0,0,0-49.6,2.88,17.34,17.34,0,0,0,3,34h40.87a18.86,18.86,0,0,0,18.86-18.77s0-.06,0-.1" transform="translate(-194.89 -195.59)"/></svg>