<?xml version="1.0" standalone="no"?><!DOCTYPE svg PUBLIC "-//W3C//DTD SVG 1.1//EN" "http://www.w3.org/Graphics/SVG/1.1/DTD/svg11.dtd"><svg t="1552442514916" class="icon" style="" viewBox="0 0 1545 1024" version="1.1" xmlns="http://www.w3.org/2000/svg" p-id="16513" xmlns:xlink="http://www.w3.org/1999/xlink" width="301.7578125" height="200"><defs><style type="text/css"></style></defs><path d="M336.085674 988.17401c68.811153-2.604092 222.294746-21.464029 271.299019-27.619156a46.794741 46.794741 0 0 0 31.564749-17.991907 87.355444 87.355444 0 0 0 16.808229-56.106342c-129.810031 6.234038-376.804194 21.464029-376.804194 21.46403s-25.488535 83.40985 57.132197 80.253375z" fill="#F36F42" p-id="16514"></path><path d="M148.512151 799.495721l-9.548336-76.465605-31.56475-195.46471c-32.43278-9.70616-66.364885 10.10072-84.435704 47.031477-45.611063 92.642539 9.469425 245.415925 74.729544 261.671771 30.933454 7.891187 52.002924 6.944245 62.182556 3.78777a141.094429 141.094429 0 0 1-11.36331-40.560703z" fill="#FF9304" p-id="16515"></path><path d="M539.362659 302.74548l14.283049-9.311601C497.69719 310.163196 201.777666 399.491436 180.0769 407.382624c-23.673562 8.680306-80.016639 49.162097-72.993482 120.892989l31.564749 195.46471 9.548337 76.149957a131.940652 131.940652 0 0 0 29.986512 70.389391 109.52968 109.52968 0 0 0 100.69155 38.035523s246.994163-15.229992 376.804194-21.464029C491.226416 794.050802 461.792287 355.300787 539.362659 302.74548z" fill="#FCC103" p-id="16516"></path><path d="M950.685956 521.010013a442.616696 139.595103 79.38 1 0 274.40798-51.453205 442.616696 139.595103 79.38 1 0-274.40798 51.453205Z" fill="#F9B406" p-id="16517"></path><path d="M201.04705 462.819325m15.231493-4.425158l133.37029-38.747651q15.231493-4.425158 19.656651 10.806336l-0.022016-0.075779q4.425158 15.231493-10.806335 19.656651l-133.37029 38.747651q-15.231493 4.425158-19.656651-10.806335l0.022016 0.075778q-4.425158-15.231493 10.806335-19.656651Z" fill="#FEE7B6" p-id="16518"></path><path d="M1021.829851 496.079569c-11.126574-58.947169-3.945594-109.766415 15.782374-113.475273 0 0-106.294293-7.891187-120.971901-7.891188l55.238311 268.694928 106.057557-47.347124c-20.043616 3.866682-45.05868-40.955262-56.106341-99.981343z" fill="#FF9304" p-id="16519"></path><path d="M1021.721662 496.009547a108.661649 36.536197 79.38 1 0 71.820743-13.466837 108.661649 36.536197 79.38 1 0-71.820743 13.466837Z" fill="#FFEE64" p-id="16520"></path><path d="M1289.104365 211.049883h42.454588v-35.983814a26.830037 26.830037 0 0 1 26.830036-26.830036h36.062726v-45.847799h-75.518662a36.457285 36.457285 0 0 0-36.299462 39.455937zM1358.783549 445.812706l-11.521134 43.322618 57.368932 11.994605a35.589255 35.589255 0 0 0 35.352519-12.941547l11.521134-14.677609a33.853194 33.853194 0 0 1 39.455936-10.810926l33.69537 13.099371 20.359263-37.640964-82.383995-24.778328a32.827339 32.827339 0 0 0-36.851845 13.257195l-4.340153 6.549685a40.323967 40.323967 0 0 1-42.060028 17.044965zM1381.667992 685.310241l6.391862 32.43278 11.994604-1.420414a38.587906 38.587906 0 0 1 42.5335 31.091278l7.259892 37.877699 31.56475-5.760567-18.149731-66.522709a52.318572 52.318572 0 0 0-59.657376-32.43278zM121.524291 972.707282l-28.487187-10.57419-4.576888 10.021807a35.431431 35.431431 0 0 1-44.743032 18.386467l-33.064075-12.468076-10.653103 27.145684 60.919966 17.67626a47.978419 47.978419 0 0 0 53.975721-31.17019z" fill="#FF9304" p-id="16521"></path><path d="M953.176521 16.058645v0.394559zM897.93821 528.906908c-45.92671-219.453919-28.723922-416.812514 35.589255-494.225061-84.751352 70.547215-394.164806 268.300368-394.164806 268.300369-77.570371 52.555307-48.136243 491.463146 116.631748 583.94786 137.464483 4.971448 354.472134 50.97707 464.317461 76.149958-87.355444-51.924012-177.867362-221.58454-222.373658-434.173126zM1184.546133 977.757642l4.419065 1.104767v-1.736062c-1.657149 0.315647-3.077563 0.394559-4.419065 0.631295z" fill="#FCD204" p-id="16522"></path><path d="M1275.373699 449.837211C1218.95171 180.510989 1088.747119-20.161905 984.504535 1.617772s-142.988314 257.884001-86.803061 527.289136 186.62658 470.078028 290.869165 448.219439 143.22505-257.884001 86.80306-527.289136z m-105.899734 480.652219c-75.755398 14.204137-173.606121-169.108144-218.743712-409.394797s-20.122528-446.56229 55.238311-460.766427 173.606121 169.108144 218.743712 409.394797 20.517087 446.56229-55.238311 460.766427z" fill="#FDEA3F" p-id="16523"></path></svg>